<mxfile host="app.diagrams.net" modified="2024-07-23T16:13:52.387Z" agent="Mozilla/5.0 (Windows NT 10.0; Win64; x64) AppleWebKit/537.36 (KHTML, like Gecko) Chrome/126.0.0.0 Safari/537.36" etag="dMsKgfqrEE2e6afAtMlA" version="24.7.1" type="github">
  <diagram name="Básico" id="-HVXGQ-C6Wx31d8cpByD">
    <mxGraphModel dx="2440" dy="2077" grid="1" gridSize="10" guides="1" tooltips="1" connect="1" arrows="1" fold="1" page="1" pageScale="1" pageWidth="827" pageHeight="1169" math="0" shadow="0">
      <root>
        <mxCell id="0" />
        <mxCell id="1" parent="0" />
        <mxCell id="fV4-aQrfrD45stiX_u8Q-54" value="" style="rounded=0;whiteSpace=wrap;html=1;strokeColor=#6c8ebf;align=center;verticalAlign=middle;fontFamily=Helvetica;fontSize=12;fillColor=#dae8fc;" vertex="1" parent="1">
          <mxGeometry x="140" y="810" width="1450" height="420" as="geometry" />
        </mxCell>
        <mxCell id="fV4-aQrfrD45stiX_u8Q-46" value="" style="rounded=0;whiteSpace=wrap;html=1;strokeColor=#82b366;align=center;verticalAlign=middle;fontFamily=Helvetica;fontSize=12;fillColor=#d5e8d4;" vertex="1" parent="1">
          <mxGeometry x="140" y="340" width="1450" height="420" as="geometry" />
        </mxCell>
        <mxCell id="fV4-aQrfrD45stiX_u8Q-45" value="" style="rounded=0;whiteSpace=wrap;html=1;strokeColor=#6c8ebf;align=center;verticalAlign=middle;fontFamily=Helvetica;fontSize=12;fillColor=#dae8fc;" vertex="1" parent="1">
          <mxGeometry x="140" y="-140" width="1450" height="420" as="geometry" />
        </mxCell>
        <mxCell id="fV4-aQrfrD45stiX_u8Q-1" value="Order" style="text;html=1;align=center;verticalAlign=middle;whiteSpace=wrap;rounded=0;" vertex="1" parent="1">
          <mxGeometry x="181" y="-46" width="120" height="30" as="geometry" />
        </mxCell>
        <mxCell id="fV4-aQrfrD45stiX_u8Q-6" value="" style="edgeStyle=orthogonalEdgeStyle;rounded=0;orthogonalLoop=1;jettySize=auto;html=1;fontFamily=Helvetica;fontSize=12;fontColor=default;" edge="1" parent="1" source="fV4-aQrfrD45stiX_u8Q-2" target="fV4-aQrfrD45stiX_u8Q-5">
          <mxGeometry relative="1" as="geometry" />
        </mxCell>
        <mxCell id="fV4-aQrfrD45stiX_u8Q-2" value="Início" style="ellipse;whiteSpace=wrap;html=1;" vertex="1" parent="1">
          <mxGeometry x="180" y="-9" width="120" height="80" as="geometry" />
        </mxCell>
        <mxCell id="fV4-aQrfrD45stiX_u8Q-10" style="edgeStyle=orthogonalEdgeStyle;rounded=0;orthogonalLoop=1;jettySize=auto;html=1;fontFamily=Helvetica;fontSize=12;fontColor=default;" edge="1" parent="1" source="fV4-aQrfrD45stiX_u8Q-5" target="fV4-aQrfrD45stiX_u8Q-9">
          <mxGeometry relative="1" as="geometry" />
        </mxCell>
        <mxCell id="fV4-aQrfrD45stiX_u8Q-12" value="" style="edgeStyle=orthogonalEdgeStyle;rounded=0;orthogonalLoop=1;jettySize=auto;html=1;fontFamily=Helvetica;fontSize=12;fontColor=default;" edge="1" parent="1" source="fV4-aQrfrD45stiX_u8Q-5" target="fV4-aQrfrD45stiX_u8Q-11">
          <mxGeometry relative="1" as="geometry" />
        </mxCell>
        <mxCell id="fV4-aQrfrD45stiX_u8Q-5" value="Cria ordem" style="rounded=1;whiteSpace=wrap;html=1;" vertex="1" parent="1">
          <mxGeometry x="384" y="1" width="120" height="60" as="geometry" />
        </mxCell>
        <mxCell id="fV4-aQrfrD45stiX_u8Q-9" value="" style="shape=image;verticalLabelPosition=bottom;labelBackgroundColor=default;verticalAlign=top;aspect=fixed;imageAspect=0;image=data:image/png,iVBORw0KGgoAAAANSUhEUgAAAIQAAAA3CAYAAADNGuJ8AAAAAXNSR0IArs4c6QAAAARnQU1BAACxjwv8YQUAAAAJcEhZcwAAEnQAABJ0Ad5mH3gAAAfJSURBVHhe7Z1/TJTJGce/tbpo9kS3lmUbArYC6Wm2Yk8gl3sTWvQuhHhcg1wubpNqTTaLMeZKeyZ68cIfRHLS0DvbGCKU5LRNjktTjtxZjzMG8Zpua1ywt3ajJCy2Qsyt63EIulEotZ1nZhb2XRf3B41Nz+eTTOZ9n5l35513vvPMPC8b9iv/FoBhNEt0zjCSOQ8xHLqMLu9RDF77BDOz92Uh82RgWbocm9d9Dy6jQQmCxLD/t7UshCccEoZcMsgzsBgY0oAUBC0TDENIQbB3YKJwlMGYYEEwJlgQjAkWBGOCBcGYYEEwJlgQjAkWBGOCBcGYYEEwJlgQjAkWBGOCBcGYYEEwJuQ3pqrfzNOn6eJETc0v4CpywrZcWWbuDcPna8Jh7zllQCs6XnchX5/NMTuFsaEWtJw6gRFtavDcQNUaYOxyHjyntXEOA2/s/R2MVUBo6BXs7vFqe5TU24mn7odX4V6brc/mob74/U1o7E/SF42673oc+WkjSvTzkDyYRmTCi4//dAidV0a1kYjWnYK/bz0OXhSmbefRu7FYFUe5H8ZI8Jd4O2EfCsQY/No0BpE7AVy88Bp+PhBQhjRYhIcw0OD+EHud4kYsUwjdGsbY5BQsK4phVHSio9rQ9aJMY4LqUBoPY2ZJNvKdzWjZUa/Lk+Dcgw1CDIQjfw8q1WECFtHOvVF1HSXdl7Jnk/QlJo3e1sWayISyh6YB65otqKv5AEeeLdClSZgJq88VfYhY7CgUfXjL3YoyXawoEGI+o8dAiG5S1L8zDetKJypf+DDBfScnY0E4Kg6gMidLqHcQJ3+zHrs7vw9Pm8i9g5hBFvI3HMAOXVcxiotUh1LHd1H/iRcRYbWu3Q63qvBIqjaITtPBA5GsosMb6SQRmbcTCZ9Q11ESfWkM0GwWfSmOF2BMGzHpsMlpTSF4Sdl3H12HxsvDQpx2lBjHsEt2JAl3+tTnij683NEE/z3AkuPC3totuoKgvBUu8myzwzjz/jq83CbqHxNtCc8gx8DZCHcqbcWQsSBeLNoMi8hD/2jBe58pGxH642lcpS9gWYqxqVTZEhG60Icg1VtSgKJH1FO4YDjsIh+F7+80SHYUPe2SJclIrx0zvlNejNGBNR8l0pI5vtOH4J0QB5bNKCtN0UtEmWjHQR9NNPKOu1GlrNj1dCmsIp+43o6jw8pG+M42qbaWOrHpGWVLlQwFUY8i6b6ncPNG/Foubv7tPFS/KdbEAW1KSC6eIkXhNu6OS8PClNdiA/V8MoDuK0FQX215taiThclIo514vrUKy/Th4vHC93lYHjlyqmWeFt4BjEnvWIQSOetrUbhaeGgxBqOjXWSIwYuRqSl55MhNcUnW/G+iDFst3DtdKKTWI0Ex65V5IXZ8W8+E8EfwB95HkNaA5aUwki2RabZj4hsuNFRuhYOOJwLol8Yoxah6/QZ6Y5OnVZctTP+9SZlbn4rbNKbETdwlF4HV+Jq83A7LVykXkFDi6J68KfNlS1fLPFUeoyBiHuKeY6jL02tf749wRtdIzKsot9NMCCM41CPyHvg/J/VnoXDdq1QhjkzboX1G4/wA/7gVVbmiXbq2bx/8uo4iwaZyPDZ6+P/lMQpi/iFOSKVPY2Rgp2ntS0jF8ygkl39fhIA6iuoO/k1uFC3257FLmWLIsB0iNsr4zCu8dBMOio3dw9cm2FR2/0qXLUzlChUmRe6mcjPxzC99X8jLRQT1L8oFCUaxZmWuzP85Gxf6JCFDQbQjKL1fNnLz4v12PZr2XcMHr/0Fb2zSJsn8Q2wZoh6JGf6d5rkN0kK49eYVyw24o7N3qyGXELlB20oHsWTWDmGKMk68gsNn2+GnDct/BQNlX6eNMfDFZK/M08IoRT6N1v0xjMh76sHIbRHPijEoKIjfYBtYv1q9VwndbJd5qmTsIf5wnUIbsWn55k9QFxPaOCq2oWRllhjEWwh+qo1x+E93wU87f+sW1LzwiB23rRmbcuhAzPpxPXOjKUIPAyhc26zW+QSk3M5joGxbMwx6TjOD8P45zeXFVo8jZdGo7ji6lRUnhwakp7StrUdDzLak0DiAcmprNoBPLylbqmQsiFBfC/pviUGhmeu5infc59GxV+QG3fg0xq6IcFTXfRgRJgWU/y90ti4YLTieM/SG0IuTHXrmRtN5r4w2kFOK7QvG2qm1kz4FKKf+xqW3qmt1OZGNomeU/Z2Ga2jaWAzLgzD83n04mYrXWblVfa7nr/i9pxElK4SWbnWhrSf61lRwcT+6rov91FKxb9p+De96RH3hnY9VbBYeVIxBoAmdaXq4jAUBnMPRzpfQFhhG5EG2CKWKkb8qW77u7T/7Ejy98eGomdDZE/DJaMHAi7EvW+YwsDNfyT50/fjDG8LLx3GFlq0lItZ+buHZn7ydTMiCjfoblwpsakmIYrUpu0PsTSPj59B96gc4eCFF72Cxq89dY8eymTBGAofws8798OlixSi6361C26VBhGbEPa0R9YV3plfXqYxBIhb5twzmy8YiPATzZYQFwZhgQTAmWBCMCRYEY4IFwZhgQTAmWBCMCRYEY4IFwZhgQTAmWBCMCRYEY4IFwZhgQTAmpCDov6AzDCEFQb+VwDCEFAT9cAZ7CYY0IL9CRyf8izpPLiQE0y/qaDvDcJTBxAL8B3U+QkHpJSHkAAAAAElFTkSuQmCC;" vertex="1" parent="1">
          <mxGeometry x="378" y="-109" width="132" height="55" as="geometry" />
        </mxCell>
        <mxCell id="fV4-aQrfrD45stiX_u8Q-14" style="edgeStyle=orthogonalEdgeStyle;rounded=0;orthogonalLoop=1;jettySize=auto;html=1;fontFamily=Helvetica;fontSize=12;fontColor=default;" edge="1" parent="1" source="fV4-aQrfrD45stiX_u8Q-11">
          <mxGeometry relative="1" as="geometry">
            <mxPoint x="740" y="-49" as="targetPoint" />
          </mxGeometry>
        </mxCell>
        <mxCell id="fV4-aQrfrD45stiX_u8Q-16" value="" style="edgeStyle=orthogonalEdgeStyle;rounded=0;orthogonalLoop=1;jettySize=auto;html=1;fontFamily=Helvetica;fontSize=12;fontColor=default;" edge="1" parent="1" source="fV4-aQrfrD45stiX_u8Q-11" target="fV4-aQrfrD45stiX_u8Q-15">
          <mxGeometry relative="1" as="geometry" />
        </mxCell>
        <mxCell id="fV4-aQrfrD45stiX_u8Q-11" value="Envia ao order service" style="rounded=1;whiteSpace=wrap;html=1;" vertex="1" parent="1">
          <mxGeometry x="680" y="1" width="120" height="60" as="geometry" />
        </mxCell>
        <mxCell id="fV4-aQrfrD45stiX_u8Q-13" value="" style="shape=image;verticalLabelPosition=bottom;labelBackgroundColor=default;verticalAlign=top;aspect=fixed;imageAspect=0;image=data:image/png,iVBORw0KGgoAAAANSUhEUgAAARkAAABMCAYAAABZJMPnAAAAAXNSR0IArs4c6QAAAARnQU1BAACxjwv8YQUAAAAJcEhZcwAAEnQAABJ0Ad5mH3gAABjiSURBVHhe7Z0LWBRHtsf/MSSokYeSQYxDWIUoghqCLgGTK0YTUW7Wxw0ucdUYXaOfbpLPVe+qixp8sJqsEr+Nj6tJNIkaNZqLel1W3GDUzzjGB7IQiA9Gl4gRHRF5GMEQvXWqq2d6hmGYQcaAqR9ff3R31VSdqu46dc7pma4HvNq2vwOJRCJxEy3Ef4lEInELUslIJBK3IpWMRCJxK1LJSCQStyKVjEQicStSyUgkErcilYxEInErUslIJBK3IpWMRCJxK1LJSCQStyKVjEQicStSyUgkErcilYxEInErUslIJBK3clevevDw8ICPjzceeeQRPPTQQ3iA/bnCHfb3448/4saNGygrK0dNTY1IkUgk9wsNVjLe3t7Q6R5Fh0GhaB/TCV6Pt8MDHq4ZRndqbqPiu2u4bDiPS3tOwWS6ivLycpEqkUjuBxqkZEjBBIYFIfT1vvDu/Kg4e3eUn7uKUysO4kJ+oVQ0Esl9hMtKhlykoKDHETF/cKMpGBVSNNlv/QOFhd9J10nS6HixybE1c+1btmyFBx98EA884Jp77y7u3LmDn376CVVVN/HDjRuouM8mWZeVjJ9fO3R7ORpPjPq1ONO4nN10DN9uOYKSkmvijERyd5Byaef3KKqrqlBZWckH809sEqPB3RQgZfcgm7xJ+bVp0waeLVviWsnV+0bZuPx0iYK8FINxF1Q21SGRNAY6nT98fNriSvElFF/6HpUV5aj58ccmo2AIkoVkItlIRpKVZCbZ7wdcVjL0FImCvO6CyqY6mgYT8FFWAU4XFCB9iTglqZ+gIZj54U6kfTgLseLUzwENUrIQLhZ9h5s3b4qzTR+SlWQm2e8HReOykqHH1PaeItVU3WIm6E/iyAJp6Vs3qpyeOahsVx+FS5oYk/+A8bHhCIudgJkp4tw9hlwkT+Z+XGZWQVOyWpyFZCbZqQ3UluaMy0rGlju3byNz7kasjvwj1kRNR87mgyIFMJ0uwobB8/E/vadh09BFKP++RKRI7mtOX4CJ4va3jDi5Tzl1r6EYTMnVK81SwaiQ7NQGaktz5q6VTME/s5G3/TDvkJqbt3Ag5TPcMJXxtIN/2YbrhVf4/rWzl3B42U6+L7nPWT8Bz4aGoGtYHJIyxbl7CM38FOR15CJ1eHEOklPeNm9zpo5HjzYi0ZaWEeg/PAFP1JXuRqgN1JbmbM3ctZK5VnBJ7Cnc+ek2yi8qFkvZdyb+X6X035fFnkLhoXzsmbEOh9+VykfSeNBjanqKVD8XsW/p37B8xQ7ktOiKl8YPg06kWPFYN0RGdkdPvTh2Ed9eE/GHtyYiUhy7CrWF2tRcuWslExBh/aTpoVYPo13nAL7/aKj1VQl48ldiT+H7LCPO/P04iv91XpxxjbBXUpF2KAs5p5TgLG05RzOwNmkIrGtejHSRnr6kH2ZuMSj5j27AaJFDP0opSy3nNCtn2SiRaI8BU/BeuqbuU3k4np6K0T1EOjFuA47z8rLw0Wuj8d7ePCVv+mIlnQdIM3A8X5RBW34W0lKGKOlOUKsPSI5DH2CySFfQY/T8bcjMEvXTlrUfH9n0U8pekbZ3MWJnbsMhXiaT/ZUYLMsUaftXIkbkVxm/UfRbzjalXm27x/EsZuzKuzcV40U6x5m+dQA9CqbH1PVTg8rSi7h+yYBdX10E2j+GQJFixbnNWDo3GZ+fEscu0qqDP3QPe4gj16G2UJuaK3etZB7v0w3Rb/4G3h39oOsWiMHvToCnd2ue1m9OIh5/NgyP+PvgicGR6DN1KD+vcokpGcKvy2P8vyvELsnAlnlDEBbgDU9Uo/oHttUAnu2CETtuMbasmiByWuMdnYzxvcV8xa77w+yf/rUN2DFfKYvgZXkH48W5U9Dd3r0xgCmt96ZhYBdW9+1yFJ0zoYJJ4dVlCOZ+uAHjg0Q+DYGjZmNgZ0/lgJfZDynvL8b42GB4MSEqio0wFpejuoU3AoOce6JAcn+i9gHJcaYIFbeZHAGBGuWhZ0pgF+aOegp6b09eT9G1atYResSwflrLlG4tWsdg3mtPQae2/UED3j2mXCvow/G7Z5RdhQnoG6b0m+nYZ1jN9+zB5FhjsFwzVjbvZ+q3zuEIFrka0re20Bft6HswDSVyHHOhZr6JUW+mIHnGSHToPYW5VHMQr++I/m+ytIlxaCnydhqejOTZY9CpbV8kTmX5hfs1Y+IwBLLRRW7ZpBgvljMIQ9j5sb3ZbosgRI2ZgzkLWd6FKZia2Be+DkYitYXa1Fy5ayVDXySKmjwYr36xECP/dzZ+FdtdpLD7mCmeYe+/jt8fWIzBqRblQ5RdMOHi0bN8v1Osk1OUSsIHSEkIZrceG5zZH2B6XDh69mRb3DSsy6YvMHlCN3A0llkNBgWdXgfjjtkYHhKCrpFjsA4jMO/3MaDbANcMWD48RCkrdALWfcP8e4vIghFYmzICwaQYcj/AxLBIDBgYg95xS2CgqtvFYPy8EUpWM97Q66thWDEGA6jegbOBYaMRy5VONfLf74fez8Yh/tlI9ByRjG3HlThWfYz6jZC7OEORI56VE9YP09d/CaESoE9aianRTAnUFGHvW0o9A6LCMXFHEUv1RPCwP2Ku7cAN0EN3bheSWF90DYnEq+uBotUG5PNxq0dYgsaWSYhGCNcxJuT/Yxs/ZZfX38XUATrLNRsg+plfM7W9DenbRqBlBOKf6cj8dyPyxSl4e6Ni9yIkL90MS0DgIg4fZxZPYFdEci3THT1CW8F0Yh/O37yMo2nLsChpJpL/dgw3g2LQ90k2kbIy1hgqWN5C7GJpHx/3QLfEiejvcRgr3mJ5Uw+iNPQ/8VI0v5L3JXetZBoCBYkPp+7k/307+UMf3VWkOMf4YZGK7/zDSXyYsAS7C/lpdh134e3pu8yDIeJlW8OeDencDZg4Y5vlZnplCCJ58L4a2Z+MwepcfpaxH28nbET2D+JQZZya34iMqUtwgJ9kFH6Ag/nKNzR1wf1quRSmvdPw6nIDaGhzTDSLE54I/PVovKgO9NyNeHv5LnHgmOpbSgloF46EV8KVfVbD7pQlTHkSekyODVcG9vGNeGOTuXYcmGFQFJFHCLoP56cs/JCHTa9Nw3ZzXzAKk3HkjLKrD7e4WQmDw5VrUWjA+u38lF1mDnyKy4GiDEy3vWYJY5BE+072bX3QV/TpOyb1o1gXyXNHIqrFaXz+aQaqRApKjTh2rrbLVZV1GhfQEU+Qiavvgc5truHbk0zx3KqCLnI0Jv05GXNe/zXvEw+7xkcfRIZ5oGVIHKaSJTOjPzoxperVrm7rldpCbWqu/CxK5uiqdJzdk8X3n53xX2jxoGtiBPuLSPu/T9Q2z9kNeY5dc8KnrTrwLBSdXmIZ6ESYv2IN1BQgawU/o6EcN22t7q4iPzPwE9Q4hdhmksVAsFmwm7InKEfBsf1iX/DVYmz6SgmMe0VM4DGP43s/wNwErcyWWJJ2U78YuHz1LhhvsZ2H9Rg4bydO5xiQtnQCYsyWySB0FE8/vaJn2ZTDLAaeQu4V37FQnI+3VSWg4e19JxXF2DkSk3kdIzAwXHE9jcdSYeB79piAbkIrmU5nWJSHLU72bX04H8O4qAR+FzOXZ+k65DoTK67KxNFva9CpR18ERgTDtzAbh9llfGLERMQHlyI9dREWzc1AfVFG076/IZmsHrEt363anrVxPsbUNLmnSqaq7Ab2vfUpvl7xd34cPuIZdO7fk+83hOpbNMIaCVaWsAuco4ZiIEYY7W5FqN/hKcK6sTEYvmAbDOeUWdqrcz+MXvIZD04rXLBTNttULZk5G/GDp2H13jyYyOJqrUPYsFn4aFvt2EX1VTvlqJuV1nXA8i/xLbfsghE2lmmNhDiEkRKryYNhtXOFVN+yfuJol3r6tj7oR4b0G6D6EYHfSlcGcA1yvylEzeNPIb6LF85nZXLrx6s1s2xuVKD01kPw7dPdKoBcWkblt0KbtmRdncT5C8wi6zMUUX5MEbbwQmDsGPTVRuBtoLZQm5orblcyJWe/59+l2b9wKz56fi6++ewQPx86NArPJY/k+65ivKIMSk99GBL4noag0egs4rplpXnKjiMo2Er/W1OsgZ+x8EwYAm0nTuMVkIcNj3Lkp8QhPt7O9vJs7OaZ6yf/k9l4dWAkug6Yho35JIkSJ5nJU1fhDTvlv6G1uJi7sXzKUDzbMwTDmTvGvwRHsYs/0xOqPSgp5bm4m2JbjrpZleeQVcjIUfo+rDdz8V5QXKXq7AwstGP5WMhDhfIx6MNG1HIlzTjZt/VBPyykHxm2auWmJzI5uTgLf3TwMiIrSzF1s744BlNADKbOn4NR3iY2PVioOnkSZ2/4o/+MFIx6qgKHP92Oo5f9ET+NWVDzZyGxB7NsrorMNlAbqC3N+ceSblcyf39zLdLZlvPpAdyqrIKnT2v0m5eIFxaPRYsWDat+XSa7aWnn0X6YtXEKwvhZBj0SXvZbhFGwtsaII1vqNuDNpOXByO8THaInr8Ro1QJgZS17K84cezDzvgFGPpvrEbuA5dfGrKn+LRlYa/PY1i7M4limfYTMlMX6M2KW92iJ+p0CYPIS68e6+SsOoEDEkFq2pBKKsD1Hmfk9I0Zjq80j67BXViJzu3ic7iTrdmSBS/mr5zDlSa5i8O2hVXTGAQZ8ekS4A0Fx+OuHNtds+wbwXx80Vt8y6FfMfo/61/k6BwrIJietguK0W5O1nrkw2oDv8VUs7yKkm40oA7bOZ3nmr0XubXHqwnaspEDu3CSs3LMZH/Mgr0ir3IdNf1Hcok0n6fgY0tcyBUOuEsu/dMUGfGsOBlkg2akN1JbmjMujnF6ZSW+0c4WHvVqhY1QXxM75LcZ9sQg9R8bWefGpbKrDIetnY5Uaz4iehrRTecjJYVtGKsZH0OBiM+Gni5H0Fc/imMJkbNqnlOXJBsDcDEtZL/oWwVhrAlmF6Z+c5EqO508rUPKz7XQmq7+3jj8Wr5e24Ygdl4rM/Dwc35+BQ1l5yBymqIDq3C8dPAq2oI8cotSfZUD6/izk5M9CDDW/xgTD/23keQx/XIndRWQheSNC1MflzS9A2jymRJ3RZlq270I+3fOtgxHsy/5fNWCbE5aQYdZibD+jWGq6WNtrpgY9G6lvGTTzV1fdRPuADnXea00ZkplkpzY091c+uKxk6J289MpMZ/ld2p8x6euleOnjqXhyVD883Eb9hoF9qGyqwzEUzxiB6ev3w0jf+fDwhGdrtrFZteKcAdsXjMHwBTaBVgdsnzICC3eIuAaVxe7kW+d2YeHvt9mNrRQtHYFXFrDBRq4Ws4J43WyrvmaEYWsq3lkvMjriDLOg+PdiPOGlD4bOm32+3IT8Hcl4ebhNcLoOjHlGVPxQDU9vHYKZtvBsQe3fj3X/PQJvmJ/0bMP0sbOx7gDLy4PEal+Vw5SbgdXvrVSyOQ2zuI4J6TxYXxz7EA4eKmnYj6T43yr9XK65ZrfLYTzwJfaKXI3StwKT6Qr/jklH/ePuc53cAMlKMpPs1IbmjnxpleS+R7606udFvn5T8ouBlI18/ea9R75IXCKRuJUGKRlCLokikUicocFKhpCLu0kkkvq4KyUjkUgk9eH2L+NJJJJfNlLJSCQStyKVjEQicStSyUgkErcilYxEInErUslIJBK3IpWMRCJxK1LJSCQStyKVDC13Ma6/OLBBPxJT+RIXU9DQhbkaA8/4HITHTxRHNnTcjPBpm8Ff0m0LpS3IhI84vKc4kqsBOOwDN+MzthBBvcSBxGXuHyXjSFk0kMgXIlCaRm80s/8GtSbPxZHImzcAyqLBzZl3EBBtQlH6WnH8C6NXJp4e+444aH5IS0bS9OnVC22ObL0PlOUvkwb+dikY8TMmIqot7VfgqOEaonSnkLx+H0+lFfiGhPBdXDesVZZ7INfjZeDgqWAM4Svqsc+t1rw3lSyR4eIFu6XZWMPfsdofY1NCYTK0Q1QMWP7NwMtqvYyCDKVO7WfN5WplBM4zi0R556pj2VW0beD1/LM9l/9MSQSiQmihLmbd2K2X7dq2lbfnMgamxIEv6qvKbQvNWEPVSstQuKYnii8qrkIIvRQ8NBFB9MpLFOCUaqGQW5IIFJ0KR2i04hgV7wxC4QlLWkHqSFTXUXatz18/jOzUCwhYkAi+UopxK77++E+0p+Sd1AfqOgDmeuyhrZuO66qfQe2LELJXHjmMymh/XNdYYD5jc9DqC5FfWw6Xlcp/B0GqvIzKIynII6vH6bbR53vh+k56wb1StrkMBrlLvt9o+tTcB5rrUIvaZVr1Vx3laPuCy/dNrzr7TYvV5zTlKbJvBYaKNpv7zHFaY9IgSyZyHBukJWyg8DVj2MAPDRIpyuDskau8NDk5aS3OhI5EvPr26rYR6IvNPG2NAYh6Qbg3NFh7sIHOP8PS2OBMfFFduDQIXfhnaAAbkb7UUvZRvz5K2fSi57RC1rckk6pgRgJb1LwZwHAlruJIdi30MuldBYpyMisEJr+Ot01VMOCrAvKyVhvRZbImdqNp6y6mmCYxZZkrZDkfIuS25cQAfD0vSNl2mhD0vMVEbhM9CNiqpGUf0SFUaz779oEeK5TPrTmMNkPtxGEclK39/KmSPoigwcHzbkVx8CAEdGR5+KAIR8kaUQZLw9AcJa0+uGIAu/HFZ9fkwW+SkJGlRTBXSE0rQLhZWXBYvXq/PJTygTURAbE6NtBEOeYB8ScUqmUzuSqjEy3td6ZtnBCEdj+hKeP12m0TSqtArYsUiEM3RlPmzgImu4hR1VmO4haa+4kUIF039lmucObZVzBEdXpP5TNso/tDr4lfBQxV26z0QYiTaY1FA5RMMAL82Kz9T3UmZgN/v7oeBqXR+sDKesDJKWQxeEGn3jVsRt8qFrG6lG3Edb/26MD2OwS0Y9cjzryOMK0d7KtTB38hDmoXvqLBba9sK4KgY2lRk1U5yIJohwA9ycesELMVoZXdCZj8e8Ub6Enm82maWE3RZhwsCEIPWuuY0LbVVMEsugyRtxAmdZmSWrBBNK0QTy9gG81efoHmwGnlkRXmG6w6fQ8bIL0sA4nNQAVqvOLiSBQZQ+BbK1BZd9naz1eZylhdqmtSgOrrfIfdjf6ARgYa2MVHWDFPspuSBg2Vy7faCs6zvY7N4poZXyMjpVnqE20T+4Tnk+GoPKAqk7W4WeKDIFVBaaCZXKmfZmUdWqkKwpm2cdjsr1ps2rZpYX3QhimtCLWt5n7U9C3bLEFiTZknTqDY119ZQ7vOckgmppgcBszrqossJ+UcWTRtdKr1QxaUpe/LvjjMNNpz5vIdpTUWDVAyNICvobjON12T2yBmd7GZl4ZwALlV2s/YdSdIwfQrxRqRhyyNulHWHraUSRYOyS6Smxx08yTB84CYxZhF4syChs7hzrIZPMAsyq7TfbBPS50PKi8LBVkLZWa/rnHJyj6mOk7AlwaUGIzcVdDtEfWnoNBKeTQy3KJQ28o2bk2tRXGq5VydLqQWR+UwIzGE2mfXSrJXFymYQahWLTyyfJoQDVAy+5DLZuy+ZneGuSb9VKvDiOISZkGobpCTXCq+Bt+YuHofE3OLp+SyWA+nP3pYlLUNZC1oZVRxJLtrkMydhAvG0Y9E35BC5DqhUO0TAk/fMlSLaZxmcO0aiG00M4xnPDPzjScsg9k3HG3VmZvci+ACq4FZX9lOUXwFsHIhSAGwy/GvuhSEherLJmaWa6wPjYxl32jcCAZvm9ivO+BL7hFTJsy1onZzRWUSA6vjc/DjcStX0Vp/dbSN9UGllYvVQOorhyttcuc01qojOgay62nCTWFl+nS3HhgB3S3Kyuf5Psxv/dIcd3GU1lg4syp5LbLWZ6AHc1eS+VKAFDxlLodYtTFr/VoEzGBpzEVREEFScWSX46uwJmAOJjHXhtY9JCyBWguXdh/GeVauUnYhzmsV9vFTOD+c0vooAdilGdCZZWSIYLIj2V2ilsxK4Lfhj7rJRB+EiEnMBGZHlcYCK2ujssSfz25cOfAAnWraM66b4JnIZj4+uJTgoPXAdFy2U9CNvzMTT4syCApk1hUjsOLEAGS3Z9YGk19BIyNLO9WdmfgijQK/xVDWYfLprkPJF9qBrlhkSvCb8qYgj+pnZr5+UhKejk5ifVGA4gZZMuxmYnJQ7Iiw2zY7faANEDtNneWEWAWwSQalj5irNTSRuUKD7Ad+WXlFxkKEij4sZtdXSzF6cTeKQxaURl5HaY1Fo7wZr8OLc5CIzQ4XDZdInEINipLL8PwF5JnjJO5EPAly0dVrDlg9GbPBUVpj0gjfk+mPgcwqOJMtFYzk7jGb7DTb3xMFI3E3DVIyZLmoT4K465Imvh8ikbiK1ZMpZvJjq+vuh6RJI18k3kQIfGEWHvuPyeJIIvn5KPh8Kkr+lSaO7h6pZCQSiVtphJiMRCKR1I1UMhKJxK1IJSORSNyKVDISicStSCUjkUjcilQyEonErUglI5FI3IpUMhKJxK1IJSORSNyKVDISicStSCUjkUjcilQyEonEjQD/D3I+7SuUTW9LAAAAAElFTkSuQmCC;" vertex="1" parent="1">
          <mxGeometry x="599.5" y="-130" width="281" height="76" as="geometry" />
        </mxCell>
        <mxCell id="fV4-aQrfrD45stiX_u8Q-18" value="" style="edgeStyle=orthogonalEdgeStyle;rounded=0;orthogonalLoop=1;jettySize=auto;html=1;fontFamily=Helvetica;fontSize=12;fontColor=default;" edge="1" parent="1" source="fV4-aQrfrD45stiX_u8Q-15" target="fV4-aQrfrD45stiX_u8Q-17">
          <mxGeometry relative="1" as="geometry" />
        </mxCell>
        <mxCell id="fV4-aQrfrD45stiX_u8Q-15" value="Envia para a fila SQS" style="rounded=1;whiteSpace=wrap;html=1;" vertex="1" parent="1">
          <mxGeometry x="920" y="1" width="120" height="60" as="geometry" />
        </mxCell>
        <mxCell id="fV4-aQrfrD45stiX_u8Q-21" value="" style="edgeStyle=orthogonalEdgeStyle;rounded=0;orthogonalLoop=1;jettySize=auto;html=1;fontFamily=Helvetica;fontSize=12;fontColor=default;" edge="1" parent="1" source="fV4-aQrfrD45stiX_u8Q-17" target="fV4-aQrfrD45stiX_u8Q-20">
          <mxGeometry relative="1" as="geometry" />
        </mxCell>
        <mxCell id="fV4-aQrfrD45stiX_u8Q-17" value="Consumer processa os dados e cria invoice" style="rounded=1;whiteSpace=wrap;html=1;" vertex="1" parent="1">
          <mxGeometry x="1160" y="1" width="120" height="60" as="geometry" />
        </mxCell>
        <mxCell id="fV4-aQrfrD45stiX_u8Q-20" value="Fim" style="ellipse;whiteSpace=wrap;html=1;rounded=1;" vertex="1" parent="1">
          <mxGeometry x="1390" y="-4" width="110" height="70" as="geometry" />
        </mxCell>
        <mxCell id="fV4-aQrfrD45stiX_u8Q-22" value="Abastecimento" style="text;html=1;align=center;verticalAlign=middle;whiteSpace=wrap;rounded=0;" vertex="1" parent="1">
          <mxGeometry x="210" y="435" width="120" height="30" as="geometry" />
        </mxCell>
        <mxCell id="fV4-aQrfrD45stiX_u8Q-23" value="" style="edgeStyle=orthogonalEdgeStyle;rounded=0;orthogonalLoop=1;jettySize=auto;html=1;fontFamily=Helvetica;fontSize=12;fontColor=default;" edge="1" parent="1" source="fV4-aQrfrD45stiX_u8Q-24" target="fV4-aQrfrD45stiX_u8Q-27">
          <mxGeometry relative="1" as="geometry" />
        </mxCell>
        <mxCell id="fV4-aQrfrD45stiX_u8Q-24" value="Início" style="ellipse;whiteSpace=wrap;html=1;" vertex="1" parent="1">
          <mxGeometry x="210" y="480" width="120" height="80" as="geometry" />
        </mxCell>
        <mxCell id="fV4-aQrfrD45stiX_u8Q-25" style="edgeStyle=orthogonalEdgeStyle;rounded=0;orthogonalLoop=1;jettySize=auto;html=1;fontFamily=Helvetica;fontSize=12;fontColor=default;" edge="1" parent="1" source="fV4-aQrfrD45stiX_u8Q-27" target="fV4-aQrfrD45stiX_u8Q-28">
          <mxGeometry relative="1" as="geometry" />
        </mxCell>
        <mxCell id="fV4-aQrfrD45stiX_u8Q-26" value="" style="edgeStyle=orthogonalEdgeStyle;rounded=0;orthogonalLoop=1;jettySize=auto;html=1;fontFamily=Helvetica;fontSize=12;fontColor=default;" edge="1" parent="1" source="fV4-aQrfrD45stiX_u8Q-27" target="fV4-aQrfrD45stiX_u8Q-31">
          <mxGeometry relative="1" as="geometry" />
        </mxCell>
        <mxCell id="fV4-aQrfrD45stiX_u8Q-27" value="Cria ordem" style="rounded=1;whiteSpace=wrap;html=1;" vertex="1" parent="1">
          <mxGeometry x="414" y="490" width="120" height="60" as="geometry" />
        </mxCell>
        <mxCell id="fV4-aQrfrD45stiX_u8Q-28" value="" style="shape=image;verticalLabelPosition=bottom;labelBackgroundColor=default;verticalAlign=top;aspect=fixed;imageAspect=0;image=data:image/png,iVBORw0KGgoAAAANSUhEUgAAAIQAAAA3CAYAAADNGuJ8AAAAAXNSR0IArs4c6QAAAARnQU1BAACxjwv8YQUAAAAJcEhZcwAAEnQAABJ0Ad5mH3gAAAfJSURBVHhe7Z1/TJTJGce/tbpo9kS3lmUbArYC6Wm2Yk8gl3sTWvQuhHhcg1wubpNqTTaLMeZKeyZ68cIfRHLS0DvbGCKU5LRNjktTjtxZjzMG8Zpua1ywt3ajJCy2Qsyt63EIulEotZ1nZhb2XRf3B41Nz+eTTOZ9n5l35513vvPMPC8b9iv/FoBhNEt0zjCSOQ8xHLqMLu9RDF77BDOz92Uh82RgWbocm9d9Dy6jQQmCxLD/t7UshCccEoZcMsgzsBgY0oAUBC0TDENIQbB3YKJwlMGYYEEwJlgQjAkWBGOCBcGYYEEwJlgQjAkWBGOCBcGYYEEwJlgQjAkWBGOCBcGYYEEwJuQ3pqrfzNOn6eJETc0v4CpywrZcWWbuDcPna8Jh7zllQCs6XnchX5/NMTuFsaEWtJw6gRFtavDcQNUaYOxyHjyntXEOA2/s/R2MVUBo6BXs7vFqe5TU24mn7odX4V6brc/mob74/U1o7E/SF42673oc+WkjSvTzkDyYRmTCi4//dAidV0a1kYjWnYK/bz0OXhSmbefRu7FYFUe5H8ZI8Jd4O2EfCsQY/No0BpE7AVy88Bp+PhBQhjRYhIcw0OD+EHud4kYsUwjdGsbY5BQsK4phVHSio9rQ9aJMY4LqUBoPY2ZJNvKdzWjZUa/Lk+Dcgw1CDIQjfw8q1WECFtHOvVF1HSXdl7Jnk/QlJo3e1sWayISyh6YB65otqKv5AEeeLdClSZgJq88VfYhY7CgUfXjL3YoyXawoEGI+o8dAiG5S1L8zDetKJypf+DDBfScnY0E4Kg6gMidLqHcQJ3+zHrs7vw9Pm8i9g5hBFvI3HMAOXVcxiotUh1LHd1H/iRcRYbWu3Q63qvBIqjaITtPBA5GsosMb6SQRmbcTCZ9Q11ESfWkM0GwWfSmOF2BMGzHpsMlpTSF4Sdl3H12HxsvDQpx2lBjHsEt2JAl3+tTnij683NEE/z3AkuPC3totuoKgvBUu8myzwzjz/jq83CbqHxNtCc8gx8DZCHcqbcWQsSBeLNoMi8hD/2jBe58pGxH642lcpS9gWYqxqVTZEhG60Icg1VtSgKJH1FO4YDjsIh+F7+80SHYUPe2SJclIrx0zvlNejNGBNR8l0pI5vtOH4J0QB5bNKCtN0UtEmWjHQR9NNPKOu1GlrNj1dCmsIp+43o6jw8pG+M42qbaWOrHpGWVLlQwFUY8i6b6ncPNG/Foubv7tPFS/KdbEAW1KSC6eIkXhNu6OS8PClNdiA/V8MoDuK0FQX215taiThclIo514vrUKy/Th4vHC93lYHjlyqmWeFt4BjEnvWIQSOetrUbhaeGgxBqOjXWSIwYuRqSl55MhNcUnW/G+iDFst3DtdKKTWI0Ex65V5IXZ8W8+E8EfwB95HkNaA5aUwki2RabZj4hsuNFRuhYOOJwLol8Yoxah6/QZ6Y5OnVZctTP+9SZlbn4rbNKbETdwlF4HV+Jq83A7LVykXkFDi6J68KfNlS1fLPFUeoyBiHuKeY6jL02tf749wRtdIzKsot9NMCCM41CPyHvg/J/VnoXDdq1QhjkzboX1G4/wA/7gVVbmiXbq2bx/8uo4iwaZyPDZ6+P/lMQpi/iFOSKVPY2Rgp2ntS0jF8ygkl39fhIA6iuoO/k1uFC3257FLmWLIsB0iNsr4zCu8dBMOio3dw9cm2FR2/0qXLUzlChUmRe6mcjPxzC99X8jLRQT1L8oFCUaxZmWuzP85Gxf6JCFDQbQjKL1fNnLz4v12PZr2XcMHr/0Fb2zSJsn8Q2wZoh6JGf6d5rkN0kK49eYVyw24o7N3qyGXELlB20oHsWTWDmGKMk68gsNn2+GnDct/BQNlX6eNMfDFZK/M08IoRT6N1v0xjMh76sHIbRHPijEoKIjfYBtYv1q9VwndbJd5qmTsIf5wnUIbsWn55k9QFxPaOCq2oWRllhjEWwh+qo1x+E93wU87f+sW1LzwiB23rRmbcuhAzPpxPXOjKUIPAyhc26zW+QSk3M5joGxbMwx6TjOD8P45zeXFVo8jZdGo7ji6lRUnhwakp7StrUdDzLak0DiAcmprNoBPLylbqmQsiFBfC/pviUGhmeu5infc59GxV+QG3fg0xq6IcFTXfRgRJgWU/y90ti4YLTieM/SG0IuTHXrmRtN5r4w2kFOK7QvG2qm1kz4FKKf+xqW3qmt1OZGNomeU/Z2Ga2jaWAzLgzD83n04mYrXWblVfa7nr/i9pxElK4SWbnWhrSf61lRwcT+6rov91FKxb9p+De96RH3hnY9VbBYeVIxBoAmdaXq4jAUBnMPRzpfQFhhG5EG2CKWKkb8qW77u7T/7Ejy98eGomdDZE/DJaMHAi7EvW+YwsDNfyT50/fjDG8LLx3GFlq0lItZ+buHZn7ydTMiCjfoblwpsakmIYrUpu0PsTSPj59B96gc4eCFF72Cxq89dY8eymTBGAofws8798OlixSi6361C26VBhGbEPa0R9YV3plfXqYxBIhb5twzmy8YiPATzZYQFwZhgQTAmWBCMCRYEY4IFwZhgQTAmWBCMCRYEY4IFwZhgQTAmWBCMCRYEY4IFwZhgQTAmpCDov6AzDCEFQb+VwDCEFAT9cAZ7CYY0IL9CRyf8izpPLiQE0y/qaDvDcJTBxAL8B3U+QkHpJSHkAAAAAElFTkSuQmCC;" vertex="1" parent="1">
          <mxGeometry x="408" y="380" width="132" height="55" as="geometry" />
        </mxCell>
        <mxCell id="fV4-aQrfrD45stiX_u8Q-29" style="edgeStyle=orthogonalEdgeStyle;rounded=0;orthogonalLoop=1;jettySize=auto;html=1;fontFamily=Helvetica;fontSize=12;fontColor=default;" edge="1" parent="1" source="fV4-aQrfrD45stiX_u8Q-31">
          <mxGeometry relative="1" as="geometry">
            <mxPoint x="770" y="440" as="targetPoint" />
          </mxGeometry>
        </mxCell>
        <mxCell id="fV4-aQrfrD45stiX_u8Q-30" value="" style="edgeStyle=orthogonalEdgeStyle;rounded=0;orthogonalLoop=1;jettySize=auto;html=1;fontFamily=Helvetica;fontSize=12;fontColor=default;" edge="1" parent="1" source="fV4-aQrfrD45stiX_u8Q-31" target="fV4-aQrfrD45stiX_u8Q-34">
          <mxGeometry relative="1" as="geometry" />
        </mxCell>
        <mxCell id="fV4-aQrfrD45stiX_u8Q-31" value="Envia ao order service" style="rounded=1;whiteSpace=wrap;html=1;" vertex="1" parent="1">
          <mxGeometry x="710" y="490" width="120" height="60" as="geometry" />
        </mxCell>
        <mxCell id="fV4-aQrfrD45stiX_u8Q-32" value="" style="shape=image;verticalLabelPosition=bottom;labelBackgroundColor=default;verticalAlign=top;aspect=fixed;imageAspect=0;image=data:image/png,iVBORw0KGgoAAAANSUhEUgAAARkAAABMCAYAAABZJMPnAAAAAXNSR0IArs4c6QAAAARnQU1BAACxjwv8YQUAAAAJcEhZcwAAEnQAABJ0Ad5mH3gAABjiSURBVHhe7Z0LWBRHtsf/MSSokYeSQYxDWIUoghqCLgGTK0YTUW7Wxw0ucdUYXaOfbpLPVe+qixp8sJqsEr+Nj6tJNIkaNZqLel1W3GDUzzjGB7IQiA9Gl4gRHRF5GMEQvXWqq2d6hmGYQcaAqR9ff3R31VSdqu46dc7pma4HvNq2vwOJRCJxEy3Ef4lEInELUslIJBK3IpWMRCJxK1LJSCQStyKVjEQicStSyUgkErcilYxEInErUslIJBK3IpWMRCJxK1LJSCQStyKVjEQicStSyUgkErcilYxEInErUslIJBK3clevevDw8ICPjzceeeQRPPTQQ3iA/bnCHfb3448/4saNGygrK0dNTY1IkUgk9wsNVjLe3t7Q6R5Fh0GhaB/TCV6Pt8MDHq4ZRndqbqPiu2u4bDiPS3tOwWS6ivLycpEqkUjuBxqkZEjBBIYFIfT1vvDu/Kg4e3eUn7uKUysO4kJ+oVQ0Esl9hMtKhlykoKDHETF/cKMpGBVSNNlv/QOFhd9J10nS6HixybE1c+1btmyFBx98EA884Jp77y7u3LmDn376CVVVN/HDjRuouM8mWZeVjJ9fO3R7ORpPjPq1ONO4nN10DN9uOYKSkmvijERyd5Byaef3KKqrqlBZWckH809sEqPB3RQgZfcgm7xJ+bVp0waeLVviWsnV+0bZuPx0iYK8FINxF1Q21SGRNAY6nT98fNriSvElFF/6HpUV5aj58ccmo2AIkoVkItlIRpKVZCbZ7wdcVjL0FImCvO6CyqY6mgYT8FFWAU4XFCB9iTglqZ+gIZj54U6kfTgLseLUzwENUrIQLhZ9h5s3b4qzTR+SlWQm2e8HReOykqHH1PaeItVU3WIm6E/iyAJp6Vs3qpyeOahsVx+FS5oYk/+A8bHhCIudgJkp4tw9hlwkT+Z+XGZWQVOyWpyFZCbZqQ3UluaMy0rGlju3byNz7kasjvwj1kRNR87mgyIFMJ0uwobB8/E/vadh09BFKP++RKRI7mtOX4CJ4va3jDi5Tzl1r6EYTMnVK81SwaiQ7NQGaktz5q6VTME/s5G3/TDvkJqbt3Ag5TPcMJXxtIN/2YbrhVf4/rWzl3B42U6+L7nPWT8Bz4aGoGtYHJIyxbl7CM38FOR15CJ1eHEOklPeNm9zpo5HjzYi0ZaWEeg/PAFP1JXuRqgN1JbmbM3ctZK5VnBJ7Cnc+ek2yi8qFkvZdyb+X6X035fFnkLhoXzsmbEOh9+VykfSeNBjanqKVD8XsW/p37B8xQ7ktOiKl8YPg06kWPFYN0RGdkdPvTh2Ed9eE/GHtyYiUhy7CrWF2tRcuWslExBh/aTpoVYPo13nAL7/aKj1VQl48ldiT+H7LCPO/P04iv91XpxxjbBXUpF2KAs5p5TgLG05RzOwNmkIrGtejHSRnr6kH2ZuMSj5j27AaJFDP0opSy3nNCtn2SiRaI8BU/BeuqbuU3k4np6K0T1EOjFuA47z8rLw0Wuj8d7ePCVv+mIlnQdIM3A8X5RBW34W0lKGKOlOUKsPSI5DH2CySFfQY/T8bcjMEvXTlrUfH9n0U8pekbZ3MWJnbsMhXiaT/ZUYLMsUaftXIkbkVxm/UfRbzjalXm27x/EsZuzKuzcV40U6x5m+dQA9CqbH1PVTg8rSi7h+yYBdX10E2j+GQJFixbnNWDo3GZ+fEscu0qqDP3QPe4gj16G2UJuaK3etZB7v0w3Rb/4G3h39oOsWiMHvToCnd2ue1m9OIh5/NgyP+PvgicGR6DN1KD+vcokpGcKvy2P8vyvELsnAlnlDEBbgDU9Uo/oHttUAnu2CETtuMbasmiByWuMdnYzxvcV8xa77w+yf/rUN2DFfKYvgZXkH48W5U9Dd3r0xgCmt96ZhYBdW9+1yFJ0zoYJJ4dVlCOZ+uAHjg0Q+DYGjZmNgZ0/lgJfZDynvL8b42GB4MSEqio0wFpejuoU3AoOce6JAcn+i9gHJcaYIFbeZHAGBGuWhZ0pgF+aOegp6b09eT9G1atYResSwflrLlG4tWsdg3mtPQae2/UED3j2mXCvow/G7Z5RdhQnoG6b0m+nYZ1jN9+zB5FhjsFwzVjbvZ+q3zuEIFrka0re20Bft6HswDSVyHHOhZr6JUW+mIHnGSHToPYW5VHMQr++I/m+ytIlxaCnydhqejOTZY9CpbV8kTmX5hfs1Y+IwBLLRRW7ZpBgvljMIQ9j5sb3ZbosgRI2ZgzkLWd6FKZia2Be+DkYitYXa1Fy5ayVDXySKmjwYr36xECP/dzZ+FdtdpLD7mCmeYe+/jt8fWIzBqRblQ5RdMOHi0bN8v1Osk1OUSsIHSEkIZrceG5zZH2B6XDh69mRb3DSsy6YvMHlCN3A0llkNBgWdXgfjjtkYHhKCrpFjsA4jMO/3MaDbANcMWD48RCkrdALWfcP8e4vIghFYmzICwaQYcj/AxLBIDBgYg95xS2CgqtvFYPy8EUpWM97Q66thWDEGA6jegbOBYaMRy5VONfLf74fez8Yh/tlI9ByRjG3HlThWfYz6jZC7OEORI56VE9YP09d/CaESoE9aianRTAnUFGHvW0o9A6LCMXFHEUv1RPCwP2Ku7cAN0EN3bheSWF90DYnEq+uBotUG5PNxq0dYgsaWSYhGCNcxJuT/Yxs/ZZfX38XUATrLNRsg+plfM7W9DenbRqBlBOKf6cj8dyPyxSl4e6Ni9yIkL90MS0DgIg4fZxZPYFdEci3THT1CW8F0Yh/O37yMo2nLsChpJpL/dgw3g2LQ90k2kbIy1hgqWN5C7GJpHx/3QLfEiejvcRgr3mJ5Uw+iNPQ/8VI0v5L3JXetZBoCBYkPp+7k/307+UMf3VWkOMf4YZGK7/zDSXyYsAS7C/lpdh134e3pu8yDIeJlW8OeDencDZg4Y5vlZnplCCJ58L4a2Z+MwepcfpaxH28nbET2D+JQZZya34iMqUtwgJ9kFH6Ag/nKNzR1wf1quRSmvdPw6nIDaGhzTDSLE54I/PVovKgO9NyNeHv5LnHgmOpbSgloF46EV8KVfVbD7pQlTHkSekyODVcG9vGNeGOTuXYcmGFQFJFHCLoP56cs/JCHTa9Nw3ZzXzAKk3HkjLKrD7e4WQmDw5VrUWjA+u38lF1mDnyKy4GiDEy3vWYJY5BE+072bX3QV/TpOyb1o1gXyXNHIqrFaXz+aQaqRApKjTh2rrbLVZV1GhfQEU+Qiavvgc5truHbk0zx3KqCLnI0Jv05GXNe/zXvEw+7xkcfRIZ5oGVIHKaSJTOjPzoxperVrm7rldpCbWqu/CxK5uiqdJzdk8X3n53xX2jxoGtiBPuLSPu/T9Q2z9kNeY5dc8KnrTrwLBSdXmIZ6ESYv2IN1BQgawU/o6EcN22t7q4iPzPwE9Q4hdhmksVAsFmwm7InKEfBsf1iX/DVYmz6SgmMe0VM4DGP43s/wNwErcyWWJJ2U78YuHz1LhhvsZ2H9Rg4bydO5xiQtnQCYsyWySB0FE8/vaJn2ZTDLAaeQu4V37FQnI+3VSWg4e19JxXF2DkSk3kdIzAwXHE9jcdSYeB79piAbkIrmU5nWJSHLU72bX04H8O4qAR+FzOXZ+k65DoTK67KxNFva9CpR18ERgTDtzAbh9llfGLERMQHlyI9dREWzc1AfVFG076/IZmsHrEt363anrVxPsbUNLmnSqaq7Ab2vfUpvl7xd34cPuIZdO7fk+83hOpbNMIaCVaWsAuco4ZiIEYY7W5FqN/hKcK6sTEYvmAbDOeUWdqrcz+MXvIZD04rXLBTNttULZk5G/GDp2H13jyYyOJqrUPYsFn4aFvt2EX1VTvlqJuV1nXA8i/xLbfsghE2lmmNhDiEkRKryYNhtXOFVN+yfuJol3r6tj7oR4b0G6D6EYHfSlcGcA1yvylEzeNPIb6LF85nZXLrx6s1s2xuVKD01kPw7dPdKoBcWkblt0KbtmRdncT5C8wi6zMUUX5MEbbwQmDsGPTVRuBtoLZQm5orblcyJWe/59+l2b9wKz56fi6++ewQPx86NArPJY/k+65ivKIMSk99GBL4noag0egs4rplpXnKjiMo2Er/W1OsgZ+x8EwYAm0nTuMVkIcNj3Lkp8QhPt7O9vJs7OaZ6yf/k9l4dWAkug6Yho35JIkSJ5nJU1fhDTvlv6G1uJi7sXzKUDzbMwTDmTvGvwRHsYs/0xOqPSgp5bm4m2JbjrpZleeQVcjIUfo+rDdz8V5QXKXq7AwstGP5WMhDhfIx6MNG1HIlzTjZt/VBPyykHxm2auWmJzI5uTgLf3TwMiIrSzF1s744BlNADKbOn4NR3iY2PVioOnkSZ2/4o/+MFIx6qgKHP92Oo5f9ET+NWVDzZyGxB7NsrorMNlAbqC3N+ceSblcyf39zLdLZlvPpAdyqrIKnT2v0m5eIFxaPRYsWDat+XSa7aWnn0X6YtXEKwvhZBj0SXvZbhFGwtsaII1vqNuDNpOXByO8THaInr8Ro1QJgZS17K84cezDzvgFGPpvrEbuA5dfGrKn+LRlYa/PY1i7M4limfYTMlMX6M2KW92iJ+p0CYPIS68e6+SsOoEDEkFq2pBKKsD1Hmfk9I0Zjq80j67BXViJzu3ic7iTrdmSBS/mr5zDlSa5i8O2hVXTGAQZ8ekS4A0Fx+OuHNtds+wbwXx80Vt8y6FfMfo/61/k6BwrIJietguK0W5O1nrkw2oDv8VUs7yKkm40oA7bOZ3nmr0XubXHqwnaspEDu3CSs3LMZH/Mgr0ir3IdNf1Hcok0n6fgY0tcyBUOuEsu/dMUGfGsOBlkg2akN1JbmjMujnF6ZSW+0c4WHvVqhY1QXxM75LcZ9sQg9R8bWefGpbKrDIetnY5Uaz4iehrRTecjJYVtGKsZH0OBiM+Gni5H0Fc/imMJkbNqnlOXJBsDcDEtZL/oWwVhrAlmF6Z+c5EqO508rUPKz7XQmq7+3jj8Wr5e24Ygdl4rM/Dwc35+BQ1l5yBymqIDq3C8dPAq2oI8cotSfZUD6/izk5M9CDDW/xgTD/23keQx/XIndRWQheSNC1MflzS9A2jymRJ3RZlq270I+3fOtgxHsy/5fNWCbE5aQYdZibD+jWGq6WNtrpgY9G6lvGTTzV1fdRPuADnXea00ZkplkpzY091c+uKxk6J289MpMZ/ld2p8x6euleOnjqXhyVD883Eb9hoF9qGyqwzEUzxiB6ev3w0jf+fDwhGdrtrFZteKcAdsXjMHwBTaBVgdsnzICC3eIuAaVxe7kW+d2YeHvt9mNrRQtHYFXFrDBRq4Ws4J43WyrvmaEYWsq3lkvMjriDLOg+PdiPOGlD4bOm32+3IT8Hcl4ebhNcLoOjHlGVPxQDU9vHYKZtvBsQe3fj3X/PQJvmJ/0bMP0sbOx7gDLy4PEal+Vw5SbgdXvrVSyOQ2zuI4J6TxYXxz7EA4eKmnYj6T43yr9XK65ZrfLYTzwJfaKXI3StwKT6Qr/jklH/ePuc53cAMlKMpPs1IbmjnxpleS+R7606udFvn5T8ouBlI18/ea9R75IXCKRuJUGKRlCLokikUicocFKhpCLu0kkkvq4KyUjkUgk9eH2L+NJJJJfNlLJSCQStyKVjEQicStSyUgkErcilYxEInErUslIJBK3IpWMRCJxK1LJSCQStyKVDC13Ma6/OLBBPxJT+RIXU9DQhbkaA8/4HITHTxRHNnTcjPBpm8Ff0m0LpS3IhI84vKc4kqsBOOwDN+MzthBBvcSBxGXuHyXjSFk0kMgXIlCaRm80s/8GtSbPxZHImzcAyqLBzZl3EBBtQlH6WnH8C6NXJp4e+444aH5IS0bS9OnVC22ObL0PlOUvkwb+dikY8TMmIqot7VfgqOEaonSnkLx+H0+lFfiGhPBdXDesVZZ7INfjZeDgqWAM4Svqsc+t1rw3lSyR4eIFu6XZWMPfsdofY1NCYTK0Q1QMWP7NwMtqvYyCDKVO7WfN5WplBM4zi0R556pj2VW0beD1/LM9l/9MSQSiQmihLmbd2K2X7dq2lbfnMgamxIEv6qvKbQvNWEPVSstQuKYnii8qrkIIvRQ8NBFB9MpLFOCUaqGQW5IIFJ0KR2i04hgV7wxC4QlLWkHqSFTXUXatz18/jOzUCwhYkAi+UopxK77++E+0p+Sd1AfqOgDmeuyhrZuO66qfQe2LELJXHjmMymh/XNdYYD5jc9DqC5FfWw6Xlcp/B0GqvIzKIynII6vH6bbR53vh+k56wb1StrkMBrlLvt9o+tTcB5rrUIvaZVr1Vx3laPuCy/dNrzr7TYvV5zTlKbJvBYaKNpv7zHFaY9IgSyZyHBukJWyg8DVj2MAPDRIpyuDskau8NDk5aS3OhI5EvPr26rYR6IvNPG2NAYh6Qbg3NFh7sIHOP8PS2OBMfFFduDQIXfhnaAAbkb7UUvZRvz5K2fSi57RC1rckk6pgRgJb1LwZwHAlruJIdi30MuldBYpyMisEJr+Ot01VMOCrAvKyVhvRZbImdqNp6y6mmCYxZZkrZDkfIuS25cQAfD0vSNl2mhD0vMVEbhM9CNiqpGUf0SFUaz779oEeK5TPrTmMNkPtxGEclK39/KmSPoigwcHzbkVx8CAEdGR5+KAIR8kaUQZLw9AcJa0+uGIAu/HFZ9fkwW+SkJGlRTBXSE0rQLhZWXBYvXq/PJTygTURAbE6NtBEOeYB8ScUqmUzuSqjEy3td6ZtnBCEdj+hKeP12m0TSqtArYsUiEM3RlPmzgImu4hR1VmO4haa+4kUIF039lmucObZVzBEdXpP5TNso/tDr4lfBQxV26z0QYiTaY1FA5RMMAL82Kz9T3UmZgN/v7oeBqXR+sDKesDJKWQxeEGn3jVsRt8qFrG6lG3Edb/26MD2OwS0Y9cjzryOMK0d7KtTB38hDmoXvqLBba9sK4KgY2lRk1U5yIJohwA9ycesELMVoZXdCZj8e8Ub6Enm82maWE3RZhwsCEIPWuuY0LbVVMEsugyRtxAmdZmSWrBBNK0QTy9gG81efoHmwGnlkRXmG6w6fQ8bIL0sA4nNQAVqvOLiSBQZQ+BbK1BZd9naz1eZylhdqmtSgOrrfIfdjf6ARgYa2MVHWDFPspuSBg2Vy7faCs6zvY7N4poZXyMjpVnqE20T+4Tnk+GoPKAqk7W4WeKDIFVBaaCZXKmfZmUdWqkKwpm2cdjsr1ps2rZpYX3QhimtCLWt5n7U9C3bLEFiTZknTqDY119ZQ7vOckgmppgcBszrqossJ+UcWTRtdKr1QxaUpe/LvjjMNNpz5vIdpTUWDVAyNICvobjON12T2yBmd7GZl4ZwALlV2s/YdSdIwfQrxRqRhyyNulHWHraUSRYOyS6Smxx08yTB84CYxZhF4syChs7hzrIZPMAsyq7TfbBPS50PKi8LBVkLZWa/rnHJyj6mOk7AlwaUGIzcVdDtEfWnoNBKeTQy3KJQ28o2bk2tRXGq5VydLqQWR+UwIzGE2mfXSrJXFymYQahWLTyyfJoQDVAy+5DLZuy+ZneGuSb9VKvDiOISZkGobpCTXCq+Bt+YuHofE3OLp+SyWA+nP3pYlLUNZC1oZVRxJLtrkMydhAvG0Y9E35BC5DqhUO0TAk/fMlSLaZxmcO0aiG00M4xnPDPzjScsg9k3HG3VmZvci+ACq4FZX9lOUXwFsHIhSAGwy/GvuhSEherLJmaWa6wPjYxl32jcCAZvm9ivO+BL7hFTJsy1onZzRWUSA6vjc/DjcStX0Vp/dbSN9UGllYvVQOorhyttcuc01qojOgay62nCTWFl+nS3HhgB3S3Kyuf5Psxv/dIcd3GU1lg4syp5LbLWZ6AHc1eS+VKAFDxlLodYtTFr/VoEzGBpzEVREEFScWSX46uwJmAOJjHXhtY9JCyBWguXdh/GeVauUnYhzmsV9vFTOD+c0vooAdilGdCZZWSIYLIj2V2ilsxK4Lfhj7rJRB+EiEnMBGZHlcYCK2ujssSfz25cOfAAnWraM66b4JnIZj4+uJTgoPXAdFy2U9CNvzMTT4syCApk1hUjsOLEAGS3Z9YGk19BIyNLO9WdmfgijQK/xVDWYfLprkPJF9qBrlhkSvCb8qYgj+pnZr5+UhKejk5ifVGA4gZZMuxmYnJQ7Iiw2zY7faANEDtNneWEWAWwSQalj5irNTSRuUKD7Ad+WXlFxkKEij4sZtdXSzF6cTeKQxaURl5HaY1Fo7wZr8OLc5CIzQ4XDZdInEINipLL8PwF5JnjJO5EPAly0dVrDlg9GbPBUVpj0gjfk+mPgcwqOJMtFYzk7jGb7DTb3xMFI3E3DVIyZLmoT4K465Imvh8ikbiK1ZMpZvJjq+vuh6RJI18k3kQIfGEWHvuPyeJIIvn5KPh8Kkr+lSaO7h6pZCQSiVtphJiMRCKR1I1UMhKJxK1IJSORSNyKVDISicStSCUjkUjcilQyEonErUglI5FI3IpUMhKJxK1IJSORSNyKVDISicStSCUjkUjcilQyEonEjQD/D3I+7SuUTW9LAAAAAElFTkSuQmCC;" vertex="1" parent="1">
          <mxGeometry x="629.5" y="359" width="281" height="76" as="geometry" />
        </mxCell>
        <mxCell id="fV4-aQrfrD45stiX_u8Q-33" value="" style="edgeStyle=orthogonalEdgeStyle;rounded=0;orthogonalLoop=1;jettySize=auto;html=1;fontFamily=Helvetica;fontSize=12;fontColor=default;" edge="1" parent="1" source="fV4-aQrfrD45stiX_u8Q-34" target="fV4-aQrfrD45stiX_u8Q-36">
          <mxGeometry relative="1" as="geometry" />
        </mxCell>
        <mxCell id="fV4-aQrfrD45stiX_u8Q-34" value="Envia para a fila SQS" style="rounded=1;whiteSpace=wrap;html=1;" vertex="1" parent="1">
          <mxGeometry x="970" y="490" width="120" height="60" as="geometry" />
        </mxCell>
        <mxCell id="fV4-aQrfrD45stiX_u8Q-40" value="" style="edgeStyle=orthogonalEdgeStyle;rounded=0;orthogonalLoop=1;jettySize=auto;html=1;fontFamily=Helvetica;fontSize=12;fontColor=default;" edge="1" parent="1" source="fV4-aQrfrD45stiX_u8Q-36" target="fV4-aQrfrD45stiX_u8Q-39">
          <mxGeometry relative="1" as="geometry" />
        </mxCell>
        <mxCell id="fV4-aQrfrD45stiX_u8Q-36" value="Consumer processa os dados e cria invoice" style="rounded=1;whiteSpace=wrap;html=1;" vertex="1" parent="1">
          <mxGeometry x="1190" y="490" width="120" height="60" as="geometry" />
        </mxCell>
        <mxCell id="fV4-aQrfrD45stiX_u8Q-39" value="Fim" style="ellipse;whiteSpace=wrap;html=1;rounded=1;" vertex="1" parent="1">
          <mxGeometry x="1410" y="485" width="110" height="70" as="geometry" />
        </mxCell>
        <mxCell id="fV4-aQrfrD45stiX_u8Q-41" value="" style="shape=image;verticalLabelPosition=bottom;labelBackgroundColor=default;verticalAlign=top;aspect=fixed;imageAspect=0;image=data:image/png,iVBORw0KGgoAAAANSUhEUgAAAH4AAAAvCAYAAAAl8X7aAAAAAXNSR0IArs4c6QAAAARnQU1BAACxjwv8YQUAAAAJcEhZcwAAEnQAABJ0Ad5mH3gAAAbVSURBVHhe7ZsPTFNHHMe/NgZYqriOiCgBgtANXBUzkWypcwIzTJiLUGPATWAJgjEL042gZgnJyNjEmNgYYgaSjImxxoBuMcqM4Y/ZCAZ1k41NQ0ViOw2DYRXtRhuCu3vvCu+VdpQOMrd3n+Ryd7+7Pt7d9+53v2vKnI8b3n3S0XMBHGWhunb7EitylITKOTrCihwloWI5R2Fw4RUKF16hcOEVChdeoXDhFQoXXqFw4RUKF16hcOEVChdeoXDhFQoXXqFw4RXKnDc+XfKElafH4nyUpr2PpEWhUNPlM+aAfagZDZe246RZ7DKOtgzlyTlI0AQjgPYdHYb1jgmmi+VotZF6RhuaVmiFrl4ZMmFDTQmrAAmZHdgfFwk8PI+9R7aji9ldGLbeQEFUMKsx6Ds+uopv2kpQ+4uFGd05iJp9OYhgNTnD6GqOx95OL33ouG5WovJsHXoFQxH27y5DQpBQmYT9Tjk2P8zxeewex+RipB21h7agkVWnwr8dH00G/k4FkhcT0R0WWAfN6HcEQr0wHXmb2rArmvWjaEnfTUVYHUJEdw6QvhbYVcGIiClC6bZ6GGifB2bhGWIi7WPCJ2G3SexDUqEyYYggolMWJMKgE4se+VN8P5qEd1yghyHjmPwdPeKAzfW3Jan/D9YsIOkzNAAnHZeuApXZRax9AtlYWLLYBvwYO0EypvH0uwX3WbMvzGX5NIhE3qtZiCCftP9aiT31h9nqJvbcNmSHa5G8phjGvsPEpscustOFvmR1v3eiGv20qyYf5W9XYPX8FBg256CxYTsK22kDxbVLhnHr+3VkdzGzlBVZiFWTnE6SKhSxy3KAbpPQ5I59oA6F5O+KpKB0Rz2SNVokrcoE+s4wuycs6KxdByOreUbeJ+zlU6hK1kMdlYUCVKOW2amn8DoWnJne2AnyMfmHHzs+H6sXB5LcguvfuUSnWPBlz1XYSSkgZA02UlN0PhJCSD7WjZYmJjrFVoeyH67BSYqaJelIFq0+kxang4bk/X0twjM1YelIE1qmogXH7oq7R/OsXshnkv7LzbhFf9CkikRsomh7Wpm+8Ek6hNFPjVhxo080jXN5CzZ/Fo4Nxi04S+tLIxFG84dmnKZnuZT2HvxGc3UEEgSDrxQhOTyU5Bb0XjkNK11p6kQkJwmNUxIfKB64TuegkM8sizAvgOYP8HhIMDy1+HfG+0oQ9QyEsZGJ3T6OGfeFn/sFYt6U560EfQbiqXb2W2gnrrr1HjknEYz4F4qF5r8jJvEocqPponHAetfz0TCBFmn77qJJkhq2Tj67x9FkoiA3BzF0Rsm7XZFtimAkpMqf1bT7lBjf+IE6qkz+rH03sN/Hhe9idoWfBbKX6kA3le3eabSSvNViFo+X0NeRTTu4IZ2kqvXpCCPxhq2vEp80e4vqXUwO7oRgTIZkceyogiGcRNyjZlxo2gb3H6xPCu6mGYzJ8BDcyYPOqZld4UccYq4KEl2+DC2eE7yuA4/djwyv7EFSKPUiw7BYWGDWyc7VAB2S1oomGa5Jsg2L9UfnceikJN7wihi4FUrSB03uweDE4rDRgIXUe6/mwuh+nWXBnfRZhfUlwsL1ByG4kz6r9i0Yu1mjj0xf+M5u9NNoOigC8e4uOqkeJz68ja93HhWDrdsWcYIXaJFFozEp+ufJiUiwWyfdwb2SmoJ44QyVuk7XPTkQ8bFltCBjfJI+N6KLLpD5qchLZVfBf8zE4qi8SdUORMzyCh8DzX8XP3Z8Ha4P0p0ciZWvFEl2MrnOxemhCSA78tFPoqvrq0MXDXJUOqRskPQl52Hp8lXMZZ/3ceVHYmeUeGF32uVuTrhD04aFeux0X2DjVMPUw8R5cebF6TpnEheWOgUb18/Uwpo9/BDegtpvSTQ9Kp6fX+zqQE1Bm5BnhxPRyRnXSq55Iu0wtprc+nagobCK3KVJs72F3OGnCrIYmmKsFFzEALrapG6OpJoD6KIHPVlgyxK9T3rXuWpcEW4BKTBkzPR1rpq4W9HfxugOugVuwYh9qU2YJ1kyTB2QekIdmj/5WQVHPcY43vDvjDeXoPD4R2gdHIYzMBIRC7UIC3TAPngGR46vg1F6ZtO+X1WifbxvJNRjw7D2VuNA/Tafv2JMWKsXvyK1taPxR8EkwYRGqxisxUQXe4gnXJhw5OduwTtExO1Bnlfv4B/9F+vEhRWkx5uZKaKRodZohXmSpRA/PcMz4py7J+/jnoz/39Vz/tPMblTPeWrhwisULrxC4cIrFC68QuHCKxQuvELhwisULrxC4cIrFC68QuHCKxQuvELhwisULrxCUQXM9fKPXZz/NapVS19jRY5yAP4Cwl7oSin9EssAAAAASUVORK5CYII=;" vertex="1" parent="1">
          <mxGeometry x="417" y="820" width="126" height="47" as="geometry" />
        </mxCell>
        <mxCell id="fV4-aQrfrD45stiX_u8Q-48" value="" style="edgeStyle=orthogonalEdgeStyle;rounded=0;orthogonalLoop=1;jettySize=auto;html=1;fontFamily=Helvetica;fontSize=12;fontColor=default;" edge="1" parent="1" source="fV4-aQrfrD45stiX_u8Q-42" target="fV4-aQrfrD45stiX_u8Q-47">
          <mxGeometry relative="1" as="geometry" />
        </mxCell>
        <mxCell id="fV4-aQrfrD45stiX_u8Q-42" value="Início" style="ellipse;whiteSpace=wrap;html=1;strokeColor=default;align=center;verticalAlign=middle;fontFamily=Helvetica;fontSize=12;fontColor=default;fillColor=default;" vertex="1" parent="1">
          <mxGeometry x="210" y="920" width="120" height="80" as="geometry" />
        </mxCell>
        <mxCell id="fV4-aQrfrD45stiX_u8Q-44" value="" style="shape=image;verticalLabelPosition=bottom;labelBackgroundColor=default;verticalAlign=top;aspect=fixed;imageAspect=0;image=data:image/png,iVBORw0KGgoAAAANSUhEUgAABysAAABhCAYAAABmpU1JAAAAAXNSR0IArs4c6QAAAARnQU1BAACxjwv8YQUAAAAJcEhZcwAAEnQAABJ0Ad5mH3gAADtFSURBVHhe7d0JnBTVuffx/8ww7OuwOMgalKBsgkAEIyqgEBKRSIyCAlGToAQhxCAGNV5fvUoEVC6EYLwJJIICmmAGiQYUUfEKhmUQcZSgCIgy7Ps621un6lRv0zPTszAbvy+fsqtOV1ed7mq75tRT5zlxu3btzmnWLFkAAAAAAAAAAAAAUJri7SMAAAAAAAAAAAAAlCqClQAAAAAAAAAAAADKBMFKAAAAAAAAnPcyss66EwAAAEoXY1YCAAAAAADgvPHp1+u1bc8n2rF/i7468Ln2H92tA8fTdTrjlPt89cQaalg7WY3qNlWLhherVaN2anNBB13arJv7PAAAAEoWwUoAAAAAAABUah/vXKPU7e/pox3/p7Rd62xp4bRv3l2Xtfquura+Wp1a9rSlAAAAKC6ClQAAAAAAAKiU1mxdrvc/+6dWffaazmaesaXFU7VKNfW+ZJCuuuQH6tm2vy0FAABAURGsBAAAAAAAQKWStmut3tr8N7216eVzNg5lYkJVXdf5Fl3X8Wa1b97DlgIAAKCwCFYCAAAAAACgUsjJydGS9XP02vq/6OuD22zpudUsqY0GdbtDN3a7S3FxcbYUAAAAsSJYCQAAAAAAgApv96Ed+se6P2nJujm2pHTd2P0u/bD7z9S0QStbAgAAgFjE20cAAAAAAACgQtqxb4v++u7vyixQaZh9mzqYugAAACB2BCsBAAAAAABQYX2xZ7P++u5TevfTJbak7Jg6mLqYOgEAACA2BCsBAAAAAABQIe09+rVeWT1Lq7cusyVlz9TF1MnUDQAAAAUjWAkAAAAAAIAKJyPrrP7+4XPlokdlJFMnUzdTRwAAAOSPYCUAAAAAAAAqnNdT55XYGJVxzr/LT9ZS04xEW1J8pm6mjgAAAMgfwUoAAAAAAABUKGm71uqN1BftUvHE5UhXHautR3e30GPftFDdrAT7TPGZOpq6AgAAIG8EKwEAAAAAAFChvLnpZe3Yv8UuFU9SVoKGHm6kKopT08yquuVoY3e+JJg6mroCAAAgbwQrAQAAAAAAUGGs/s+/tGLz3+xS8STmxGnQkSQ1O1vV7WGZEJegfnEXqmNWXbtG8Zm6mjoDAAAgOoKVAAAAAAAAqDD+b8sbysg6a5eK55LTNXTN8bqq6l8iq1FNdRJq6OYzzZWUUzLjV5q6mjoDAAAgOoKVAAAAAAAAqBA+3rlGa7Yus0vFUz+zim440kANMxPdXpU5iQlSzepKUJzaZddRv7MXlFg6WFNnU3cAAADkRrASAAAAAAAAFULq9vd04swxu1R08TlxuvJEbXU4XdNNBau4OH11/IQOHDvuPl8rJ0HXZjVWu8w67nJxmTqbugMAACA3gpUAAAAAAAAo90w61Y92/J9dKp7WZ6vq6uP1VD8rwSuoXlXrvtimtC93uotxzr9mWdXVP/MCNcip6pYVl6l7SaWvBQAAqEwIVgIAAAAAAKDc+zz9Y6XtWmeXiq5GdoI7TuXFp6spwfSqrOKlf61fp7ZqVAuOU+k8qy6Z9XVFZpLiSyAdrKm7eQ8AAAAIR7ASAAAAAAAA5d4XezbbueLpfKqGepyoo5qyvSprVJMSEtTtkm/rktYtvTKrYU5V9c5oqIuyatmS4imp9wAAAFCZxO3atTunWbNkuwgAqCyyznzjTjmZR6WcLFuK81ZcguKq1FVCtQvdCQAAAKho/rD8Ib22/i92qWiaZCZqxIFGbgrYqqZXZbWqUp2abrAyLyfisvR64jdaVHWXO18cg7rdoV/0f8IuAQAAwCBYCQCVTrYyjm6UcjIUl9hA8Qm13UAVznM5WcrOOu58LQ4534dEJdbt4hSSYAEAAAAVx28XDde6bSvtUuElKE4DjtbTbQcbq2FmFefP4XjtOnVSZxPi1Sr5AiU4j0ZGZqa27NilZk0aqUGd2jIxzV1xJ/XXqjv0QZUD7nJRdW/TR4/fOt8uAQAAwOAqJQBUMiZQGRefoIQarRVfpR6BSnic74H5Ppjvhfl+uAFtAAAAoAJJP7zTzhVNmzPV9N3jdZSUadtI1atq046v3MBkZnawx2RmVpY2b9uuz7Z7+4vLkS7MrqGrshrpwpwabllRFfc9AAAAVEYEKwGgEjFpX02Pyviq9JhH3tzvh/M9cb8vAAAAQAVx7PRhO1d4tbLj1eNEbXU8VUtxzj8lVpGqV1PjpAZqfkFjJcQHL5ElxCeoddML3F6VPtMrs0dmkrpnNlDVYlxOK857AAAAqKwIVgJAJWKCTyb1K1AQ8z0hWAkAAICKpDiBvnanaqjvMTtOZZwzVa8mVUlQt/bfVsc2rZzZYEaaqolV9J0Ol6hdqxa2xFMrJ0H9MhqrbWYwiFlYBCsBAAByI1gJAJVITuZRb4xKoADme2K+LwAAAEBl1yQjUVcfr6tmGVW9gmqJJiLpBi3jnSnOBC8j5FV+cXZtXZXZUA2y7bYAAABQbAQrAaAyyclyxyYECmS+J+b7AgAAAFQQdarXt3OxS8yJU4fTNdT7eB132fwFfNKZMnPHIZWTk2PnwmVkZurk6TPKdp43KWT7ZjRRh6w6qmLSyRZSUd4DAABAZUewEgAAAAAAAOVeYQN9JpRoelN+72h91cxJcAt2HDqk99M+096DudOx7j10WMdOnLJLQTvS9+qdDR/pwBEvM0ldJWpgRrIuzK5R6HAlwUoAAIDcCFYCAAAAAACg3Euu39LOxaZGdoJ6nqijTqdquss5VaroSEaGMrKzlVgld0aa9z/6RBu3fm6Xgsy6pnflkWPHbYnUJau+emUkqYaq2JLYFPY9AAAAnA8IVgIAAja/1E5PT3Kml1JtCQAAAACUD00btLJzBYtXnFpl13Z7VZrUrYp3/lutqi5u00rf7dxeDep6aWFD1aiaGHWcyuSGSerdpZOaNWlsS7ztfz+nudpUbeBsOvbLa4V5DwAAAOeLuF27duc0a5ZsFwEAFdmZA28qsU5nu1RI+17Tn56ZoCPuwngNmDxaHd15VFYZxzapWsPr7RIAAABQvi3d8FfNWvagXcpfrao1dXPLq9X/6wTV2HtI1U6eUXzVqlKUHpW+YydPOk8761erZkuiiItTds1qykqqp6zkhnqvwSn9eWOKjp7yUsQWZMyAJ3XD5T+xSwAAoDx48tW7teqzpXYpds2S2qh98+667wfP2hIUFcFKAKhEihOs3Pv2WM17U+oyvL++nD9BdYdv0S0d7JOolAhWAkDB/rFhg1Z8kqYN27dr2769Onj8hLJzcuyzKG3xcXFKql1LbRo30eWtW6tfh/b64eWX22cBVHaffr1e971wo13KX1L9Rhp90wOqdSZH9b7aq0YHj6nakRNKOHxM8c5j/Okzcn7Q7dr5y6mSoOzaNZVdv7YbpMy8IEmZLS5QVtNGOqGzenT+b7V7b7pdO3/PjFyiS5t1s0sAAKCsFTVQGeqSC7vq2Z8UbxvnO4KVAFCJFD1YmaqXJw3VV50W6te3NdeKZ67SRk3TiPsGqYldo1SF9fJ0NC7DulRiBCsBILqjp05p2htv6H/feUddWrbSgE4d9Z02bdQ2OVkNa9d2A2YoGyZQfOD4cW1NT9e/t23Tso83a+POHfr5tddqwsCBqlujhl0TQGWUkXVWv3npx0rbtc6W5C0hIV7f7/dDtW5yiVrWb6Em1WqqytGTSjhwWAmHTMDyuOJPnFLcqTOKO5OhuMxMyb0ZJU45Cc7vfGKicqpXU3bN6squU1PZ9Uygsq6yGtZTTo3qOpVzSvtO79a2Q1v010ULlJmR5e04H6bnxe9ue0WJCVVtCQAAKEt+oLJV43Z68IfPqWWjb9tnYvPvz9/Sf73iZUx4Y9LX7iOKhmAlAFQiRQ5WfjJbT8+frha2N2Wgl+V9M9Wvsb+83FkxND3sPi+ouU+qd/37+llfZ0W7HV+L4Qul+UP1lR9sjHg+VF7bCOqfqz6B7Uc8j9gQrASA3P6yapUmvfKKftSjh8Zed53aNW1qn0F5tWX3bs186y39fe1aTf7xj3VH7972GQCV0QvvTdGC//sfu5S/Wg2qq3Onjrqk1SVqWaeVGlVPVp3E+kqIS5Ays9xAZfyZs9JZE6zMssFKR3y8chKrKKdaVeXUcCbn0aR/PZN1WofO7te+099o75ndbrBy7ZqPtHd74DbLfA377i818uqJdgkAAJSl4gYqffNXPa0X33+GYGUxxT4COACg0tr8kQkOjld7m/a1Saf+qqfl+vLjfd5y35ka0MnMTdeat70yffI3N1CpTgvzDDJ+FQgk5i8QqDQ9PO02TNmvJ29xJ2/fy7XxzVT3OV/49p3nnxmrFbZ6AAAU1th58zX77ZX6+9ix+v2IEQQqKwhznMzxMsfNHD9zHAFUXl1bX61a1erYpfydOHRa2775j7YcW6c1+1fo3T3/1Ht7XtfGgx9o26mt2lPlsI7Ui9fp5Lo626KJMlsmK8OZTjdvqBONauhgrTPalb1bnx39SGv2va139rym9/f+S2sPvKvPjqTqk08/jTlQaeps6g4AwPno1Nnj+sfaP+nYqcO2pGyVVKASJadMelYePHhQL774og4cOGBLiqZVq1YaNmyYqlevbksA4PxWpJ6VkSlXw4T2pLSpYt2ym7XH7VXp92YM9rL0e2cagR6Z0dK4+sFNN/VsV6/Mr0vk+oE6evVp4m838Nro+0f+6FkJAEEjnvujm2J03j13k+a1AjPH0BxLcwzNsQRQOU177ZdasflvdqlgF3W/QA2bewHOhLgqqhZfXdUSqqtqfDVViU90yxKcf/Fx8cpx/mXnZCsrJ1OZzpSRfVZns0/rdNZpZ/6M+7xxYNcxfbFujzsfi34db9aEQbH1CAUAoLLYdeALpaz7s3vevuiCjpo6fLF9puwUJVD55qaX1e7CLlHXpWdlySj1YOWePXt02WWXuY8lwWxr3bp1qlKlii0BgPNXUYKVwRSv0UULPtZr3F9H9jmPoT0iA4FMP7jpyCv4WNj18whWhtZt80vttOxjgpWFQbASADymJ97B48f14uh7bAkquttnP6ek2rU1c8RwWwKgMln9n39p8j9Gy4xhGavWlzVWk2/Vs0vRxZnxKm0wMj97vzyi7R/FntLFjFE56Yez1evb37MlAABUXlnZmc65epleWz9Xm3autqVyzoXP6epLB9mlslHYQKUZk/IPyx/WniNebrfrOt2sId+5R99qcqm7bBCsLBmlngZ23rx5bqCyttNwvOaaa4o1mQDlRx99pKVLl9qtAwAKZ58+3mh7PtqUq8FpoVo4a3y17DXt9VZWk76PqEtjuYFK0+uypxuoNJqroTs7XWmfuAWuvR8vj9Jj0/SC9NK3thgeEqg0GjdXXfO4b4KW+OlmHZvfNIFKR6ee4esDAFBMZozKf2/bRi+8SsYcT3NczfEFUPmYoJ/pqVgYJri4bf0eZZ7NsiW5FRSoNK/9Ym16oQKVhqkrgUoAQGV3+OR+vfT+s/rJrO/oiVdHhQUqG9Rqou+2G2iXykZRelS+vnG+Dp3Ypx9dcbeuaHu93vr4b4XK7oDYlXqw8vBhLyfxxRdfrHfeeadYU7163h1xJdVLEwDOO3bcyXpdeoanaHV1VXszVuS+5bJDVzoaq9+A8e5ceKAxWP7V/HZ6epI3Reuxufftx7yxLh2h677sBjm76pbh3naOvHlV4DnTY9JNSeuniwUAoAQcPXVKk155Rc/eNozUr9Gsn6XEO+/S5PV2+ZxZr8nOfhL/UHI7MsfTHFdzfM1xBlD5XN/5FrVq1M4uxWb/V8eU+q/t+nxduo4fOqPs7IJ6Uea4AcrD6Sf0n9XfKPWNL3Xg6+P2udiYOpq6AgBQWW3+6kM348GImd00b9U0HTieO17zg8tHKCG+7LJjFiVQ+fXBbfpw65tqlvQt/azvIxp9/eNu+YrNf3cfUbJKPVgJACgv9mnFsunOY399q5PfQzJcx8tM4HC5Ns4L9q5Uh9EacP00XRuZatUp/7UNNHrMeJZe70xfQSlnXWY7901TWIImt+dnRC9MAACKadobb+hHPXroyrZtbUk+di/VLSagFjqNulej/rBUa/Zm2JVQnpjjao6vOc4AKp/2zXtoYNfb7VLscrJzdHDXcaW9+5XW/3ObNi7brrT3vtLWD3friw3p+mL9Hm1Z8402r9yp9a9/qdQ3tus/a3br8J6Tyik4Q2wupo6mrgAAVCZnM0/rnxte0Kjnr9X984fovU+XKDM70z4rdWzR086ZGwkT9P2uZTc8Q1EClUazpDaqU72+jp46qKUb/uqOW2n0uKiP+4iSVepjVj788MN64okn1KVLF6WmptrSomnUqJEOHDig5557TnffTdqmErNuhnrfn+LNtx+nlFmDleQtASjnijJmJc5f5W3Mys3T+2m0pmnV+HPYg9Y9x0mzV44j+F3JHVw8VoNnpnkLg8/x9woVVtNx4/TOpElq17SpLcmHCVY+uFiHu92qST28W2pO79mkV99eo7nH6umxXzyhSd1quuWVhulZ+fv1euzeOc57s2XnhOlZOUuP9BijjF+U7I627N6taydP1u4ZM2wJgMrEjFn5p7cf15J1c2xJ+XJj97v0s76/dcesBACgMvj64JfuWJRvffyyTpw5Zks9dWs0cLMJDOwyQl/s+djtbWlcfemN7tjNZaGogUrfyk8Wa8qSsXZJaljnAj09IkUX1At2z2DMypJBz0qES0/RRD9Q6Rh6Z8kEKs0Fw959+mnWOlsAAKjYzPnC+V03v+1mmrg43T4RZIKP/vO9+8zQZlseXareNaeflFVh64VtY0yKDtpyI3z7EVPEur7N77s70buB81G6lo4p+HW+wD6nx3DDlQmM5rVN/zl3GquluT++fOVZjxiOy3nB+XwDgUq11wNDSyZQGevfM4X77qOs/GPDBnVp2Sq2QGWI+i07q88VPd1p4I2j9PwzU7SkY4Ye+cMUvbrbroRywxxfc5zN8ca5lqpZgd++4FS2bcCI87ydws+Ptt4F/A1Q0vxzRXE/H287hf9borIwQcAfXXGPrrn0RltSfpg6mboRqAQQjd+2CJsiz0W23ZirXZerrRn9HOxP7uvz2lbEeTDQlomoS6C+uc6XUfYdpb0c9f2aqYjb84W3vZwpdHth7W5/imif+W3oWNr457GcnGyt3rpMDy0cpp//sbdS1v05LFDZvnl3TRj0P5o/doObLtWkTV2ybq591ty8c6edK13FDVQafToM0d/v+0wDLhvmvrf/HfVeWKASJYdgJcLt2iEz7G2vsS9q1coVGtPdKwYAIMD8MT9shnu+8K2eeXtYo8c0GEYH731xpGh0PkGbg4vnaKEJKi3wezx6FxfDtpE2Q4NDGh4dx69wz1WByXltL/cZZzu/jXKzjVPvF5ztmXOcd34z+7hdT/kxLSNiH2Gchk74e8qb2xALufknVO7n0vTUsEJcZMyzHk6jroDjcr44uHOr+zh0qvluzNQNpZdEpNDffZSdFZ+kaUCnEuhjHd9IA+++VaOzd+rJ1zfZQiv7iD5bMl033uOljW079lE9++F++6QvQ+kfzNWosXeHpJZdps9O2qcNd+zIe53XfqEFz05Up5+a7d2tG59dGr6ey2xvvsbdf7damO39NK/1pMOfLtXE0PWeXKSNR+yToTL3a82fH1XvUd776PTwXK2JfBuF2e+HczUy4jOJOqrk/jWa/aT/fp393j9dCz6NVsH8meNsjjdKicnO45+bpw7WwvvLw02rgzU7pE5lf35M13bvVKUdO8+/83RJa1K3mX7ca4x6tR1gS8qeqYupk6kbAOTHa7OY6UU9oHzao1b0tmZXjfHPc3ZKGdvee8o5L/9mSOwNItPOnj3YmXHaxgsC5+9ULTA3g0Zk4PMCkBO0w15HDryPrRNyBwWt4Pu1U5G3Z68ZbA3/u8PU+3cR53j/Ore7rfa0zwrDpD9dtHqm7vhDTz32t7u04cv3lOP8M2pWq6MbLv+J/vjzlW5Pw34dbw7coLNz/3/0ya5/u/MmQNih+Xfc+dJUEoFKn3mv478/TT+64m7VqFrblqKkEawsCXnemVI83g80vREBAOXL5oVeQCzQyLBBwtUrPvQaVTYoGHqx0m3shPVoDGUbPoPvCgaV1r3sBREjtxGl4eHz6xW2nRDe84M10m+o+fswKULdfZiGi7Oc9pY+yLWLVM3KI/gYyQSrgr36Itn36gZm7ednGlQmYPl4/o1ST9718AK+IQ2xyOOCc6/Q332UpQ3bt+s7bdrYpWKq2VM3dZY2blivjbZIOqk1zz2kTinfqMv379Tye0ZpSueTeua5iRr3VjDgdvitKerxv6uU3nmIu87ymzsrff0idXpgrjZm25Vczmufn6JX6/bTjFGj9HKfpjq0abE6/dcibQ9Zb/uSJ7ztXTJEL5jt3drN+WFarOufWqrQn7bT62dp0JTFWt24r543643sq9a7l6nHw7O0JiLA+Pr8J/TIoUv14E9HaclN3fSt3avU+5nw7RVqv8+t0uqk3nrZWe/5QRfr0/mLNNk+H7B7qUY+8Lye3NtY9410tnfPrfpF7c81cspDmrw+SgQ0H+Y4m+ONMtC9t4Y6DwvnxnKO89keFQVcrC2y7re45/vVM18uwwuVybphlneemFKIC8jI20UXdNRPrnmgXPSwNHUwdTF1AoDYJevKfs4JKixIGC7/tmYov91ZtKx5HYd6bcmF93tBvc3TJ7htzbBtOW2f37nt+GkR5zJzjpvmnP9TNLow5/LCbi/9Q73nrN6r3xXBOnUfV8C51X7GtM8K9NnXGzT1tXEaPrOb/vLO77T3aDC96cXJnfTLgVP04tgNGjPgyahBwMX/ft7OSTd95+d2rvSUZKASpYdgZRnzA5L+RGASAFC+pevCoSYQ9qKG+b3vk6/Q1W6Qb4e+cQuu0G9WvqiUkN6NHa9yIzZRew/4QbahVwVTdXrpWsMbQ36DKWrwzQ8S5ZXy039+cO/AWJUHm9/iNGScegbW9xsuadqxyyvxBeo41u+9mReTOsZ5r24A1DSoIqxb5W4nLKBqL5pGD5KGy68e3+w0jdH2uvpKu+FcxwXnXuG++yhb2/btVdvkvC5kFFaialRzHk6e1GmvQKfXz9XYtdKkUY/qsRt7u2ljb/r5o3qhszT71cU2qLlfK1d9ofQmN2jGzwd46WX7j9LLIy+Vjq/SG5vclQJ63fCoXv6pt95NIx/Va7dfpOT9yzRnTYZd41O9seqILr1mTGA9s70Xbm2p9J0r9MYXdjXt1IKF67Wm6RC9MvFWDTTrXXOrZjx2q+48vl7PvBWRz/bS4VoywVtv4I1jNOO6etLudVq91z4f836/0Ny/OPttNEBv/vedusldb7ief+pOeaPZ+DK08uXFWlC9m1558n7deY2z3hUDNPq3D+mFlif1yJxFEYHc/JnjbI43ykD6Tu2ws+VHslq3NY9btZ2f5krFXJD8yTW/cceJLCtm36YOpi4AUFhemy4vBbQ1Q/jtRnMTZaDdXhjJg/Ubt2em046ePsO2paeFZeDzbgbOa8iNrhpmXp9P4DVSobdnswOabAlcTy857336mu6dM0C/emGQ3t78d3dsaKNqlWruWJT/c8c/NfPOf+l7XW5X9cSa7nORTpw+qpWfvOrO16pWR307DHHnSwuByoqLYGUxuXmxbQ8H8+PoBh1DclyHByMjUrytCx1PybPwfrOO143df86kzTGvD+25md923TqZsnXBcav8H23vOTs59fSWzV0ydiyPsPcS3G7Y/sakaLO7HL7ffN8rAKCSSFaSubaf7Dx6BY7d2hF6OnOfs+tZflrO3NL1wQrnxWGNKD812mBdE9qwyif45veq7DX2oai9Kg9+8Fauhk+SG6QIr2fUxmHIHZ5jrrRleeqqjuPHadX4aA2s4OcQGpg1dQgPkvpjdEScSwuox4UtvW2850c87Z2mat9KF3olFUref8/4n49fZpfdv7+8+fC/oYIpfs753zOF+u6jrB08fkINa5+7FD4bP1yvjTW7acgVNW2JUVNdO10knfxcn7rxwHqqb35Mj+/Up3v9gKNU/Zr7lTF3jiZ1sQVW15bh42vW79tPZvSXuZ986hXoUo2e+qyW39HZLnvqN2zs/PeI0g97y/pitRbsl0b37e18Y0M06KvHfjVKozuE1ln6/hXdVN3OG63bXOz8N0Ons7zlmPf79UdaeVy6qffVah3aEq1ZU2Hv7MwavbFR6tKjr3qGViW+qW663tnHyfVa6b/lGJjjbI43Skma0871f0cj0pN7wn/Hw9K6uVmLvN4bwe2EPO+cC4NjMwfPEYXLcuT/ndFWraP8zeAqYD/euSL8HJW7J6htY+fxvH++CbvAGsP7izyXReszHMv5rrJq2qCV7rnuMd1z/WNqllRCvedjYPZl9mn2beoAALHyr/uaKf9hR/JvawaFZPOJNjxKjJKG3OUGRFenpDjn8sGaHbbfVL1r6tr+Ovn3ykZKauneGRTjTZtF2F7zVoEbeKNdO4/OXn+IvNaAgEUfzNAXe3LnnvjeZbe5N+N8u2lEAyWKf320QGczvVs4v9flNlWtEtqSOLcIVFZsBCvPIXORLTwYacakCjZGvItXzonDTwO3cppmTy14XKWCtutxyu63DUN7Adi8LuyklzIhprG3TEMnbH9Oo3F02P5jrRMAoDIK3LUZ0msxXLCxFOj157OpWIuSmiYg3e9VGZLiNUyUNLPRhGwn2HBJ19LHzfk0snF2DgV6oYT28Cy4HklDHrJp7ezNU+4F4uI1UMte5N8z5gK3vYhtLbw/fDkvZfP3TD7ffVRyu/Wl+f/35Cr1MOM3hkyNXwx0M3Qkqs/td2pS4ibd+MDd7viNE19YqjVfBwOX+YpvpUubOr8Q+/bLjwe642Qun6VR4+3YkWb6/Xr7pHV4v1Y6D00b1POWAxKV3Lmn+lwUWR6hin0MFct+03fL3GPdtVl40DWXg0fcAMy3kup7yyGqX3SxbtJJfbm78GNXouwEz/O5f8dNr43RsQTSTCAvLPgZco4oDPu3R6+xt0T/uyXm/USUm+Bq4MZl8z6jjIud3xhZMew32rnsqYg2fSznu8ouLi5Og7v/VPf94BkN7Do8MH7WuWC2bfZh9mX2afYNAMVS1N6QVrB9XkD7t0C2N6ORZ1s/HzaYuHpneMaO0OBsbAFGK3J7gd6fQW5bONfNQyFtZP/cXEFv6C0N/3XzXA29cpwa1r7AlniWrJ+rkb/vocf+/lOlbl9lS3Mz41mmrPuTOx/n/Bvc/WfufGl4Zc0fyiRQacbnfH/LP+0SioNgZTGZQYe9saZCxogyFxH9C57OCSYwyK8dO8ofryPpyuucZe8imPdD2lUd3ZORN36FPxCyPyaYm287hu36AvUxAxX7rzMXOf3XhaUMsGNmhL0XEzgNuRsnEFS1Y3r5ClEnAEAlE8gSEN5rMcj0KrAXJXM1lpznnPNEeHCw8Lxek3lfdAykTg3rzRgpVbPsBcKw7fjB1KnjCt84Kyqn0TXFnk8DaXZiqYc/BmcY5++MhcGMDxVR6N8zCjS8/XFGncn+7eLpqjFOWfjfUOYzK4u/Z/L77qM8SKpdSweOH7dLxXVEh0y0sGbNsB6IatDNHZfRHYsybLpVffy7CBr11mPP/FH7Hh6lx3rU1+G1r6n3w3er/7S3nW9RYZ3UypkT1WnRDn3r++O1avqz2memiB6PJa8U95vtpaIqDHOczfFGWfB+d/3zmX9ODvy2B36z7fnKHWvKtlMDv8feuS+YRSHytbEwAVF7YfT+FHcbeY1nVZj9BNax5wtt3emeL/J+n865Jo+LsgXvN4ZzWUzrnD/aN++hcd97Sg/e9Ef163izm8KupJhtmW2abZt9mH0BQLGZdo65jmsXC8/vOZhX+7wQnPaRm9nHSJlQ+Bs4bZrWXhGZQfzr3P6U9/iSEaJsL2nIzOA52Jc2Q7+LONeGnlvd9mPYDUYI1aRec3fc5RfuXatHbp6jKy6+TnFxXggpOydLq//zLz24YKh+9serNPvN37rlof79+QrtO+rlwupxcV81rlt6YeF30v7hPt517YOlGqh88h/3aMe+Lep9yQ22FEVFsPJcc++etI2isLskHf7FSPOj6q8X5e6PqPLbriuPO/jD7oRpqlaxNlrCuuH7Y3xEKLBOAIBKxWm8TLTpw4fmkRlg83T/zsVxSonsEegPiJ8ryOifZyIGvY+a1tS/KJdXr8poaWYjhQaVQgfzT9Us+/4Cd3/65zensRbzOTuEn7pm4fuhDaNgg7JVc68kXCz18AO/oRcnV2i2ieOlzKnAad+i/z0TFngOSf9ToFL8eybf7z7KhTaNm2hregn9z3FojV7dKnW5vJu8xEiNlGwyoJ6pqW/1MOMtRk6dlWyumWdn6PCRIzqckaj6F/XUsJHj9fzM32vrD5pq5SfzNdcb2DJv2TvcdLLJjRvJ7YO4923nNRm6afCvNKn/pWpdr57qm6l2ort6QHJT3eQ8HDqVuwfn6eNOfU7G2LPTV8j9fpq+31vOS1I9tXYevjwY6C8acPrLnXpVzufatIDenyHMcTbHG6XE/O4FLhyGp1rNNb6yw08z5wf68hfxWnteLVjoTbuxXBiNbT+tWtp1klsqWuLPYE+OyJ77eYlhv7Gcy2JZ5zzSs21/TRj0P/rvW1/SsO/+Uu2bF/0uOfNasw2zLbNNs20AKA4TvHPbbY7IwF6h+TewFuVmybYtw4Kk3k00TvtyarQbOLvqGlPntLfkj0ISyR8OI3CuzFcxthe42Td4c05kb84w3Xt7f3ekrMo72wEUH5egXm0H6NEf/1Xz7l2nEVffrwvqtbDPSl8f/FJL1s1R2q61tsTz2vq5dk4adPkddq507Dnylft4cfK5vlHTExmoNDcwoXgIVpag6D+EoY0i50dzbPAOGZOexe3qbn9U3RNTlB/l6Lm9895uvsJ+iCPGGMtPWL38MT4iFbFOAIAKKNgT0R1DMco1H3Oe89KNOw2cKKlIvcZP9CBjx6u81lpogyjQ46DfFYFtBXsu5JHKze+RmE+a2UBQyZzHQoJKm6fHll60UAINo5AAot+gzGN8jtjqEe2c7p+vQ9PJVg5hwV57h21MSunvmYK++ygfLm/dWv/ets0uFUP2bi2Yvkhz41vqwe/7DeNEde1yqZJPrtKctyICcyc3aeVGm8L02Co9Mv5Xun7+Jm/ZlajWXTurj5kNjAnpSY1ob5z+YI3M5YA7O1zqFTjru6PDRLxu+86IkX6bXaY+taVnV7wdTB9rOPV95Je/0sil+VzgiSbm/XbXwEbSgv97T9uzbZlxaL++tLOuaj01sIu0ce3bWnPSlhnOZ/3qm85nVbOb+ti3HAtznM3xRily2rhearYUjQ7puZBrfGVHIF1dxEXSaGNU53rtORsXuIT2E5oJYME4PTC1oEBpDPuN5VwW0/nu/NOpZU+NvHqinh6RomdGLtG9AyZrULc71KX1VWqedJFqVK3l9h4xk5k3ZeY5s45Z17zGvNZsw2wLAEpKx/FeVoHVM58oxo2mITewRutVmUdaVn8YkrBA6boZXnvGBD2723N6WniPxY5DTRAzr0w+9qbifG8aDlf87SXrht/6N0vFgFSwMTMpYW/77njN/cVqPTlsobq1udY+Iy3ftMjOeQHM9dvecefN+M3dLnJbNKWmUwvv3Px66jz38VwiUHluEKwsCf4d/aZ3Qx+ba9tpnI10r7OGpJsxebFn+t3mvR/Z0DstvYtawQuK/l2U/jru6wrcbh6ivi6Wi59+fnKbrtbfX+gF0aLWCQBQYQUDaOEBvoCQlDG9xj6U+65OP+VmXmNfdL/FuysypJebe550Gie/Cen5WFCvygLTzPqNMEdkilU31XsgaBW80Oie84ucnifKedXtNRka1DLjXJnnvPG7YqtHPufrQjQQy7tA7xv7N1fw8ytIKf49U9B3H+VGvw7ttezjwt9PfXjnJq38cI07vbFklkb+4iGN3FVPj/1iom4KucZT/5rhmtJSmr3gUY16YZn3muXzNeqB6Rr56gptN50X6/XWXVfW1Mb3Z+mWP9t13l2kiTOd+fjO6hnxA/nqkicC23rj5am6ce4mqeUQ3dXT9mBs2tkNBr66dIq33rtL9ex//0q9l0QGHy/SnXd0U8/tizRoyiK94e/3wbl6tmY3PXiDU/HCiHm/LTVsqLPf3Ut1/cNz9ar/mTzi1CGsZZqoPrcM0bDT6/XjB6dq7rvm816m2Y8/oZE7a+qxu25Vl0K0ZM1xNscbpcsfSzn0Bh3/dzx3j8PQC6t+BiD7e2wzGXgXMaO9tmSVxH6inq+GzXDHoMzrV6fg/cZwLotpHRiXNuumH1w+Ur/o/4QmD1uk/737PS3+9X/0+m++ciczb8rMc2Yds655DQCcG101xh3ewvn9LuowHgX1qnTaO27QMSzzjtNmfjzyJmI/s0+wrR88f4cEU53tTTF1ds514eNO+pmLnNcXps1cyO2ZG0TNeS6srebeyJpHsNa3bpV7LSP0JmjExoxB2bV1bz3yozmqnljTLXs3LUWnM7y7C5esn+M+Gj/o+hN3/dL0456/cB9ffP8ZzV/1tDt/LhCoPHcIVpYE/8fUWr3iQ68xFTKepc/kyB7W3PzgmjGVgt3TPc6Pach4Hma8jtAxKvxeBPlvN2/mdWFjXgyeFkgzkB83/3fo/tqP0+zQ7TiKWicACPhktp6e1E5Pv1TEP8xRSkxDwb/BxggN7NgLcOtmhKXPDL3o5jc6vHEm82tEeGMph52nnPNPSmhjxzRKnOfz7FWZZ5pZj9u4CQl0hQ70fy5vtsl1XnXP/yFpdO2draahWpgekWa74WNbOSI/swov999PQ6eGjsGdt1L5eyaG7z7Kjx9efrk27tyhLbsL14tw5fpF6v/c8+406vXPVb3zEK2aPEWTunkN9oD4phr2X1O0qk9TpX/gvWbk4k2q3mOU1j48RK3d+GKiuvx8ij4e1ln1Ny72tvvC2/qsSV+temq8+kQMrzbp9jHqc2CFxj3/vG58w9l3xyF684Eb1DrQqmupO//fQ3rB+dFbudLZ5wuvaWWtfnpz4g1u+tXQnpnVu43RaxOHqNe+tzXK32+rIfr4v8eoZ8RbKVgh93tPb/U6uEq3mM/wtc916fDxmnKBXcHX9Aa98NQoPdhkn555wXzei/SH4xfrhYlP5P6s82GOrznO5nijtDnn8jvNb6oJnHk34ERvB5se7aHp5M3fACG/7X4vQdPu9sezdDnnT5uarkSVyH68MZTD29vmfH+LLszrdBDDfmM5l8WyDgCgHPJv2DU3uhRhPEXTFh9qzh35BOq8c0Tb8Bta5LQZ7fjQwcBgZDs69GaYkBtv7FjTrULaPe4225rMAuE3A/tC293eVJTtpeublg+559mw7d2/NbxtbYW2y8w1AJN6N+axMpGLGbf52g7mr3y5gcr30pboTMYpLftogVuWmFBVA7vc5s6XJjN+tB84PFcBSwKV51bcrl27c5o1K73/OR9++GE98cQT6tKli1JTi3dBulGjRjpw4ICee+453X333bYUAM5fZw68qcQ6hcnNvk8rnrlKG/fZxRAthm/RLR3sQolL1cuThuor9VeX+2aqnxnXywQr50+XOi3Ur2/L5y44lJiMY5tUreH1dqk0mZ6DTgPI9Ao8h2P5bZ5ugqrmAmj0RhIAPLJ4sQ6eOKHfjxhhS8qp9bOU+Pv1euzeOZpEx55CuXfePCXVqqXHhgyxJUD54P2d4o1VFi2dPgAAQHm15ZuNGv/XH7jzJkjYp8NNmrXsQXf5e5fdpl9+f6o7XxZWfbZUT77qxYpuv+o+De/9a3e+uAhUnnv0rAQAOEzQcIt+PdmbRlzfX1/Nb6enn3lNe+0aJWrfLh11Z5brwDnZAco1m3Zl6FXnMiidqnfdzDV5pJkFAMeEgQP197Vr9cFWBnSrjMxxNcfXHGegvDBBStOzw8tSkU+qegAAgHKq3YVd1LLRt935tF1rteiDme68Maj7nXaubIQGEkuqhyWBytJR6sHKJk2auI8bN25UXFxcsSbTq9JITqbbNgCUpCZ9Z7oBS+2boCVvR+l2WVyNB+lnNjB67npvotxyU7uc614EXvq1c9lzE0DFV7dGDU3+8Y/1q5cWKDsnx5aiMjDH0xxXc3zNcQbKB3szlRU5XjYAAEBFMeCyYXZO2n/MG/bB9LJs06Ts08+XZMCSQGXpKfU0sPv371fHjh21Z88eW1I8Zltr165V9erVbQkAnL+KngY2JB1rgJ+qdbwGTB597i+k5JEGdvNL7bTsY7sQmjYWxVZ2aWABoHwZO2++Dh4/rhdH32NLyhnSwBba7bOfU1Lt2po5YrgtAVApmPGhQ8Yc95TjtP9R6xtUrtIA51HX3HW0QzrYpVDeumbMu9v1VJot9EUbS93u04wRHj5+nN1H4DXRt5n7dQCA0nL01EHdPqOrMrMzbYn0m8F/0DXtwwbtLlPFTQlLoLJ0lXqw0jA9Il966aVAz8iiatWqlYYNG0agEgCskg1WBgOFoeNX7n17rOa9udxbMMHD4f315fwJOuIHGfe9pj894y0P0NBAoLHe9e/rZ339HUQJhEYJVoYHKn3BugaebzxNI+4bJNN3P1pZYNtWi+FO03q+s//Qdc5DBCsBIGjEc390e+PNu+duxcfF2VJUNOYYmmNpjqE5lgAqmVzBLT+IVQHGKc8zMFdORKufH8AMG2s+MpAYKdox8cva64EFM3WD//YLHawM2WZ5/zwB4DzwxOJRen/LP935BrWaaN69a5UQX8VdLi+KGrAkUFn6ymTMyoYNG2rs2LF69NFHizXdeeedBCoBoBSFByqN5dpoApV2KczHwUClceTNq/SnwqSU/WS2fb0JaAbH0nT3Oc8bS7PjbbZs3wTNeynVrZ/7GhPwzCNQaXxlApV2HgAAwwS2TE+8Xo89zhiWFZQ5bub4meNIoBI4XyTryn4m3VyK3l3nlZxfTFCvn3qPSdFBW1KizPANUwc7H+8ETVycbguLIlk3zHpRD7RP01PDZmizLS2W7rc425NWz3y5ZLYHACi0AZcNtXPSwK63l7tApVGUlLAEKstGmQQrAQAVUarecQOVpmejFzw004BO3rO5RQYZpSPpu9zHWOzd4+X4qXf9zYE7pJv0vUstzMy+XW6w0mjS9xF1MR02Px7qBVJNb8lAGtl9WrHMC1Sa3qF+nf36AAAQyqQMHd23j340c6bunTdPW3Z7Y6+gfDPHyRwvc9zM8SP1K4BKJT1FE01A0p+mp9onSkn33jKXolev+LCYAdGSDiwnq3Vb87hV24sTRwUAFFm3i/ooqXYTN0h5w+UjbWn5U5iAJYHKskOwEgCQh1Sl2Z6N7U0K2H27dNQsNu6vTiHpYjteNt7ORejUMxhkvKDog2ubHplPT2pnp2g9Ihur34hpqmeXWgwITeu6Swfczpz2PVhNOvUPrA8AQKg7evfWlqeeUlKtWrp28mQNnPa0pi9b5vba23fsmJtmFGXHfP7mOJjjYY6LOT7mOJnjZY6bOX4Azifp+mCFuclxsK6x4ypunm6CemO1dF0wyDdrnXRw8djAvCeyV6Jdnp5qtxF8bSh/O/5UvB6Hht2vP4UFI53nhs3Qarvk8ns5mjSo/tiRaTM02H19aK/F/LZbGF11jRl+LO0tfVDMt5p05XXq5TwufL8kAq7p2u4mQmir1mSBBYAyEef8mzxskZ4ducRNA1uexRKwJFBZtspkzEoAwLlRkmNW+ilfg2NN+uNMhq8bGCMyypiV/tiTucejjGHMSn85bFxJp74vrVGn20IDkv62fCHbDLy/PMbdZMxKxqwEgAL8Y8MGrfgkTRu2b9e2fXt18PgJApZlyIxFmVS7lto0bqLLW7dWvw7t9cPLL7fPAqj0/DEUI4WMn2gCjaNDV7HPafFYDZ6ZpqFTV2iMG9g0wbzQcRHtsvuiUMFxFk2g0mwjl7AxHfMQbYxF02syMhhp+HWyzyvkNZvXpapjd2dfUT8LO6ZjQdu1i2HyGQPS+0z9zyGvz8kfTzKfcUT9evmfV577jDw2jFkJACgZeY1hSaCy7BGsBIBKpKSClXkF83KPWRmipIOVjkAgNEJo4NFfxy1TlACnv91oCFYSrAQAAEDFES1A5QftbADMD1ZGBrH8QGPBwcpgQMzflvea3M8HthES0MxTlLqHb98tiijzg3TmmWj7iHwPnoK365WFySf45702IliZZ+DzXAYr7dNWtLoCAFCQ0IDlJRd21cXJnd2yIycPEKgsQ6SBBQA4lmvjM36q1XZuQNId4zEikNek78yI8R7Ha8B9wRSsJa3jbbnHlzQ9Pa9tYnK7moBnsFenG7zsMNobQ3PfBM2bNNtLgeSU/Xp4aKpaE5hd6I19CQAAAKBis2MqKmVVSArU9rr6yiIGsdq30oV29sKWIcNZpO/UDvM4uHdIAK6rho0166RpR+zD8+ey8P5gulYTUAxK1g2zVmjVyhf1QPs0PTXMrDNWS2NMx5r3dgsjVe+a17a/TkX9SH0HP3jL7e059Cp7U2tB2raMCIaaAKj5PLyJQCUAoCj8gGT9Wo312TepWrrhr26gsn/noQQqyxDBSgA4rzVWv/u26NeTc09+z8VIJmAZXG+0OjYepJ+Zeb8XZeSyYQKGYWVddYv/eluSex1P+P62uClpmzQ2XUD9bYS/xgQ4vXWjbNudTA9S+9rzuFclAAAAUKmEBBnzs2OnjfT5wcdYJbdUK/MYFhRN1QI3LWx7tWrulRSF6SHoB+BWTR2nBxbY3o+mJ6I7pqYNWk51B4/Ue5GDR6bt0Dd2NlSe2y2Eg4vnuClfe/W7IkovysLwP6vg+KJq3sodw3L1zt3ess8em14tm3rLAACUMBOwXDBuo96Y9HVg+tUPco9jidJDsBIAAAAAAAAV07pVMQXTklq2dR9Xz7zd620YbUzHfPm9KFM02vZW7O2mgHUMviv/FLB56Dh0nBes8+tkpvtn6KnHTYBS2rzQqWPaDA0OPOd1jwwG95qqldv509bJDWwWvN2YrXP2bQKMg6cVsxejSePqp8sNSQ2bPFi/MZ9pypyQ3qLOuo+bYzNYI+k5CQDAeYNgJQAAAAAAACqM8CBcijsOY4HBtO7jlOIGGz1Dp5rUqnYhRklDZtrejUFu70Uz/mJRJA/WFDfFq112Ddbs317hznUcvyKszkb4/kyPy2leGlwj7S25nS4L2G5+on22Ud9faBDVThMXh/b4DA3q3q6n5Hz+K3OP6+l9pm1titvQdSPGuwQAAJVa3K5du3OaNeNOJQCoDM4ceFOJdTrbJSB/Gcc2qVrD6+0SAAAAAAAAAJQ+elYCQGUSlyDlZNkFIB/me2K+LwAAAAAAAABQhghWAkAlElelrrKzjtslIG/me2K+LwAAAAAAAABQlghWAkAlklDtQuVkHLJLQN7M98R8XwAAAAAAAACgLBGsBIBKxA0+xSUq+2y6LQFyc78fzveEYCUAAAAAAACAskawEgAqmcS6XZSTnaWsU9uVnXmEMSzhcb4H5vtgvhfm+2G+JwAAAAAAAABQ1uJ27dqd06xZsl0EAFQWWWe+caeczKMELOGc8RPcMSpNb0p6VAIAAAAAAAAoLwhWAgAAAAAAAAAAACgTpIEFAAAAAAAAAAAAUCYIVgIAAAAAAAAAAAAoEwQrAQAAAAAAUDGkp2hin37qbaeJi9PtEwAAAKioCFYCAAAAAACg/DOBymEztNouGqtn3k7AEgAAoIIjWAkAAAAAAIByb/NCL1A5dOoKrVrpTAvGqZezvHrFhzrorgEAAICKiGAlAAAAAAAAyrl0XTjUBChf1LDutij5Cl3d3nlM26FvvBIAAABUQAQrAQAAAAAAUM4lKynZPDiPXoFjt3ak2VkAAABUWAQrAQAAAAAAUOEcXDxHC83M4N7q6JYAAACgIiJYCQAAAAAAgIpl3QwNnmm6VbbXA0O7emUAAACokAhWAgAAAAAAoOJIT9HE+1Pc2aFTZ+oGkx4WAAAAFRbBSgAAAAAAAFQQqZo1bIZWm9nB0zSmu1sIAACACoxgJQAAAAAAACqEzdMneONUarBmjyf9KwAAQGUQt2vX7pxmzciXAQAAAAAAgPIqXUvH3K6nzDCVuQzW7JXj1NEuAQAAoGIhWAkAAAAAAAAAAACgTJAGFgAAAAAAAAAAAECZIFgJAAAAAAAAAAAAoEwQrAQAAAAAAAAAAABQJghWAgAAAAAAAAAAACgTBCsBAAAAAAAAAAAAlAHp/wNDEJ4dDnQ88wAAAABJRU5ErkJggg==;imageBorder=default;" vertex="1" parent="1">
          <mxGeometry x="180" y="130" width="1320" height="69.78" as="geometry" />
        </mxCell>
        <mxCell id="fV4-aQrfrD45stiX_u8Q-49" style="edgeStyle=orthogonalEdgeStyle;rounded=0;orthogonalLoop=1;jettySize=auto;html=1;entryX=0.5;entryY=1;entryDx=0;entryDy=0;fontFamily=Helvetica;fontSize=12;fontColor=default;" edge="1" parent="1" source="fV4-aQrfrD45stiX_u8Q-47" target="fV4-aQrfrD45stiX_u8Q-41">
          <mxGeometry relative="1" as="geometry" />
        </mxCell>
        <mxCell id="fV4-aQrfrD45stiX_u8Q-51" value="" style="edgeStyle=orthogonalEdgeStyle;rounded=0;orthogonalLoop=1;jettySize=auto;html=1;fontFamily=Helvetica;fontSize=12;fontColor=default;" edge="1" parent="1" source="fV4-aQrfrD45stiX_u8Q-47" target="fV4-aQrfrD45stiX_u8Q-50">
          <mxGeometry relative="1" as="geometry" />
        </mxCell>
        <mxCell id="fV4-aQrfrD45stiX_u8Q-47" value="Cria cotação" style="whiteSpace=wrap;html=1;" vertex="1" parent="1">
          <mxGeometry x="420" y="930" width="120" height="60" as="geometry" />
        </mxCell>
        <mxCell id="fV4-aQrfrD45stiX_u8Q-53" style="edgeStyle=orthogonalEdgeStyle;rounded=0;orthogonalLoop=1;jettySize=auto;html=1;fontFamily=Helvetica;fontSize=12;fontColor=default;" edge="1" parent="1" source="fV4-aQrfrD45stiX_u8Q-50" target="fV4-aQrfrD45stiX_u8Q-52">
          <mxGeometry relative="1" as="geometry" />
        </mxCell>
        <mxCell id="fV4-aQrfrD45stiX_u8Q-50" value="Envia para cotamo?" style="whiteSpace=wrap;html=1;" vertex="1" parent="1">
          <mxGeometry x="657.5" y="930" width="120" height="60" as="geometry" />
        </mxCell>
        <mxCell id="fV4-aQrfrD45stiX_u8Q-52" value="" style="shape=image;verticalLabelPosition=bottom;labelBackgroundColor=default;verticalAlign=top;aspect=fixed;imageAspect=0;image=data:image/png,iVBORw0KGgoAAAANSUhEUgAAAMMAAAA+CAYAAACWc69tAAAAAXNSR0IArs4c6QAAAARnQU1BAACxjwv8YQUAAAAJcEhZcwAAEnQAABJ0Ad5mH3gAAA2lSURBVHhe7ZwNWFRVGsf/xuAA8qGIH8QYKgoKisqqOWmiWBqk+ZFkBlam4frBrqnPgwTWFLLqrppPmZS5ftKm6a4fWyis+GCZmBgV4ITKmCgqMgI6oDAIsue995CofA0whnZ+PPNw7jlnzn3PzPmf877n3jut7Np1qoRAIMBj/L9A8IdHiEEg4AgxCAQcIQaBgCPEIBBwhBgEAo4Qg0DAEWIQCDhCDAIBR4hBIOAIMQgEHCEGgYAjxCAQcJp016pCoYCDgz3atGkDS0tLtGJ/plDJ/m7duoUbN27g+nUDysvLeYlA8OBptBjs7e3RoYMTnJ/rhU7qbrB7whGtFKYtNJXlt1F0vgBXkn/F5QOZ0OuvwmAw8FKB4MHSKDGQELp4uqLXvOGw7+7Ec5uG4exVZK79Bhe02UIQgt8Fk8VArpGr6xPo/55/swmhChLET+/uR3b2eeEyPQDs2KRmw1xcKytrWFhYoFUr09xcc1FZWYmKigqUlpbgJnOhix7Q5GiyGNq3d0Tvl4egZ9AgntO8nPk8Bb9sP4b8/AKeI2huSASO7Z1gLC1FcXGxNOgq2ORDg7AlQKK0YJMuidTW1hZKKysU5F81uyhM3k2iYJliBHNBbdM5BOahQ4eOcHBoh7zcy8i9fAnFRQaU37rVYoRAkC1kE9lGNpKtZDPZbk5MFgPtGlGwbC6obTqHoPmhwUQz7sWc8ygpKeG5LR+ylWwm280pCJPFQNunNe0alZeWsaW2gh/dgVRedqO0wTMPtW3qFq2gfsg1UjK34wqbZVvSKtBQyGaynfpAfTEHJovhXipv30bikljE+LyFTwcvRNoX3/ASQH8qB9v838MnAxfg8/FLYbiUz0taKoFYEhuPI6nJ2DydZz0iUIyQfzXvoRRCFWQ79YH6Yg6aLIas//2Ek7uOSoaWl5ThcPSXuKG/LpV987eduJadJ6ULzlzG0VV7pXTLxQfqIW7oYK/kx48GNJNSsFyXa+QzfQU00fwVFY1FIRPQpbbRYdUffhMno6ctP36AUB+oL+ZYHZoshoKsyzwlU1lxG4aL8gpw/bxe+l9F4bkrPCWTfUSLA4s24ugHLV0kDze0fUq7RvViyMCOlR9izYajKOykRtAUNS+4h8d7w8enD7xV/NgkXODzShgip/nxY9OhvlCfmpsmi6Fz/7t3liytW8Oxe2cp7dTr7k+rc7+uPCVzKVWH01+fQO7Pv/Ic01CNW4z1CalIy8zCqSz5deLIToQN5RUI1xcQ9s94nNDeqXNKm4oju1cjuC+vw4hOoLJAuElH9lBH8LoJy6Qcamf+ur3MhTp5p53MkzgRx9pxlavILEMcL49bPgJhsUk4UWVfahLWz/NidVQIXlnNpsxUJMYuhq/cQDVUGBuxAXHH7znnkb1Y9Sq10zBoi5K2T+ulohzXCi+y1fxrJPxcBCuXrnDmRXdx9gusXKLBvzP5sUlYofPjjmCxcKOhvlCfmhsLpbWthqcbhKOjI1wnefMjwKGLEx6zsIAhJx/2KieMfHcqnDxcpDLnAd1RcPaKFFx3He6F4YsDoVDe2SlKidkvrSLd/Pqi69N3vtzzu9NQUFjIj2rG95292BT2HNzbKUHxvPGmERWtFLCxb4NS7afY8xOr5DoTm3dG4YXejlBasOMyI4wVCihaK9Gmkwd8A0ahTcZ2fHcBGDppFjzsKqCw5N8S1TVWoOJKGmJ2JAHhH2LLOA+0saiA8VohCm8p0MZaCWV71s7TzvhhWyJypDc+g6C/eIH22yw7j8CQnh3Yt2eU21Xao+uQp+Hd83lMGecGmwp2jkpmj0LJPjsfDOiWgq3xciskhDdi9+F9dk5Ha/becla3lNmnZOe07Qh33+cxyi4NO76tql877Z2cpH36unAe8Cw8bHLxw9EM0Bri4DEcPu0L2XEJhi9ajKB+7nB5djJe7HkbSQp/aOaOgc3pW/B5KxT+jrk4mknusB2eConCjD9Z4NhZF7z45xAEjhuDEaOexcAetrjw4y0MWxiCwe1YVcceLN8dhkMpuGw7CAGvhyBokj9GjBwGN8urSNfl4TYZVgPkklPcUFjQvNeimrwy0AWSwbP98frBKEz9Tzi6+vbhJWx+dWmPCZ/Nw4zDy+C/eiYbCza8hLlQF/S4ePyMlO7mW22KbghDV+MdNjPasaQxOx5RE3vA29sL3r3GIypBhyKpkgphH70FNY3KshwkvD8eHp6sjmcPTHw/HjllLN/eC0Ghc6TaURNZmfc+6KQjA5L/QcfsNZHPFRUG6PZoMLEXyxusxjAfL4Ts5wOxuxqvVF+NOHa2euyaJds2cc2Pv9nl669Czp4FGEX2jFmOZH4tSTUgGFWOiSriY8wfQn6xETkJ/LysHQ9mT0K2keXbw3PKAsyWajcvivZj4NfPDsW6dPzmBHdU4MwnEdBsOsQziGQcTyuBba8BkPwDq6fQu0s5fjmWiNKSKzi+exWWRoRB82EKSlzVGN5Ph7iV63Gc5rmseGgi1iGVuU1+b0yGe+4uqe7STTrY+U5GQHdq8MHSZDE0BlL20dV7pf9tu3WEaogHL2kYY19VsyHFuPkjNr4xF7HpUjbjJGLnBCJ0E0u6zoWvpxwI58SHI3TrSSlNaLfORUyyHM8oPUdivpSqh4hABCyKhZYfEoe3n+SrgT3s3KXEXeQkahCRKKe1a7chtWpyvpqMjYv2ye/N3oCD6VwNLCjsLSVUmO3rBcl6JvbIOdXOmx6L0JhkSNbbeGJEA4ynWxtoj75e2vXHLBZARy7wgzOzccfeDF7AOJ/BBvH9t8j8+rMOxbau6E1fSB83dCnPhjaD1SsrRQefYMx6W4PIeYPA1kcoaHW+FxabeHcC2j45DZF07hl90BbWaFfHpSzqC/WpufldxHB8XRzOHEiV0sMWTWJulmlmqLvRR8s49wPWZMvJ+/BTQb48o4fucLKUqs6uY1nyTG1jL31R9aOC+k0N1m+PR1wSi1PSmB+/ZYwsylow3qh+3n3Q8zFvzNFil5yUiL1890YD8Bxc+O6hPiuJzb/3sOsYsqS2lLCTw7M6abCPzQPolVERWB6zBxdq81Oqc/YQUvV2cO/vAZ++rihOO4p09r6egSEIcCtE3OqlWLokHnVHhWw1+YKtILSK8NeWE7yoBhocA5nIAxVD6fUbOPTuv/D92q+lY6/Aoejudyf+MBVjGfk69cF87XvHmsmoEbZ7HzaHBcN3oBtUbNYy5OZAd1rPWjedstKG32NjLGuy8dLNbnSPT73wALq41JSbJC8iXVuAtt3HYlD3ImhT5NXEzoatRDeKUFhmibZP9UEXKZfIwzUKSqzs0ZZG35VMnC1WoPfoqehmxd7T2gW9J01GXY4z9YX61NyYXQz5Zy5J1yKSonZg8zNLkPHlESm/1/jBGKmZKqVNRW+Qh6DSXV27z3xID/lqhwqqUffP374DekgxB24aZJejLibMwLi+5L+zWGLFCOa7+2DY6DEIiE6t/72N4gDy+f6ByrWG1WfUAPSQttmNKMqVcuqEbnCjm92srZt/B4bQp5yCvlNHOOdnIoWHUakHU6DvrMb89yIRZK/HBTmbUYS0E9kofZzK5rBBn4F9G+NxBn3w2pJoaJbMgZ9DEWoL96kP1Bdz3LRn8l2rPdzc8PS2YH5UP1v9Nbh2Tr7wRigdbKD+6zj0fXl4rbcMfzstFlk6OZStkenbcCJCLQ3mIm0sNKEafCW5S14IXqfBkykUN6gRnbANkykQK9Phq7AZWPhf+ZvyfPVjfLSYDbLW7P3HlmNg8AYpX94WlbdXc/bPxKjQJDn7t/PpkTBLjVApDvDC7O3bMH8gF0m0D16nWKVaG7pdPRCwmPJkaPuW7Ln7nIzl8Tg1mb3DkIwVPtOwkWWpWd5mymMDXrcnHCFVMUbfYHy0JhyjXVlEUa1+fdBFKrrZje7xoVjtYYTGi4vqCVy/XmgWMZi8MtCjmvSEmim0trOGy2B3+Ea+hOkHl8J7qm+tQqC26Rx1sikc676T52Q7z2CsSsySfPi0zL1YMtpNnvGZpx2xYid05Em1dsPYD5JwSsvqaLOw+x1ZCMbcJKyLqDYooUMe/4xV/hvkNuOWAadzkCd5Dh0w+mOWR/navZjtqDfTysCsX7wMu07TCqiE24TVSMyUz3tqt0YWAnOfDseEN0gIBA0eI/OzO3V2rvWzb8mQzWQ79cFct3KbLAZ6Zpke1Wwor+x+G7O+X4kXt8xHv6ARaG1rxUtqhtqmc9RNDja+FoiFm5KgK+Auk40SytvM5UlPwsGq3b/EcARMYatGuh5FkihYHSYCGPTQJqzD20EzsfGuAHwDImOSkMM/a2oTN5mz9V04Fq2NZ+dimQrWBssvO7cPf38zla0J5iIJEQEvIWrPSdkt5OdFOfUxHjFhgQj5jPskDUSvz5OeW6DZ1VwukzkgW8lmsp36YC7Ewz1/QMhlEg/33I947PMPDIlCPPZ5B5PFQIgfBBA8ijRKDIT4qRjBo0ajxUCIHxETPEo0SQwCwaOE2a9ACwQPC0IMAgFHiEEg4AgxCAQcIQaBgCPEIBBwhBgEAo4Qg0DAEWIQCDhCDAIBR4hBIOAIMQgEHCEGgYAjxCAQcIQYBAKOEINAwBFiEAg4jXrSza1nDT85LRA85IjHPgUCjnCTBAKOEINAIAH8H/IZd4WBV3yLAAAAAElFTkSuQmCC;" vertex="1" parent="1">
          <mxGeometry x="620" y="820" width="195" height="62" as="geometry" />
        </mxCell>
        <mxCell id="fV4-aQrfrD45stiX_u8Q-55" value="Cotação" style="text;html=1;align=center;verticalAlign=middle;whiteSpace=wrap;rounded=0;" vertex="1" parent="1">
          <mxGeometry x="210" y="882" width="120" height="30" as="geometry" />
        </mxCell>
      </root>
    </mxGraphModel>
  </diagram>
</mxfile>
